<svg width="26" height="29" viewBox="0 0 26 29" fill="none" xmlns="http://www.w3.org/2000/svg">
<g filter="url(#filter0_d_39_791)">
<path fill-rule="evenodd" clip-rule="evenodd" d="M22 12C22 16.9706 17.9706 21 13 21C8.02944 21 4 16.9706 4 12C4 7.02944 8.02944 3 13 3C17.9706 3 22 7.02944 22 12ZM13 18C12.4477 18 12 17.5523 12 17V13H8C7.44772 13 7 12.5523 7 12C7 11.4477 7.44772 11 8 11H12V7C12 6.44772 12.4477 6 13 6C13.5523 6 14 6.44772 14 7V11H18C18.5523 11 19 11.4477 19 12C19 12.5523 18.5523 13 18 13H14V17C14 17.5523 13.5523 18 13 18Z" fill="#2E9FFF"/>
</g>
<defs>
<filter id="filter0_d_39_791" x="-3" y="0" width="32" height="32" filterUnits="userSpaceOnUse" color-interpolation-filters="sRGB">
<feFlood flood-opacity="0" result="BackgroundImageFix"/>
<feColorMatrix in="SourceAlpha" type="matrix" values="0 0 0 0 0 0 0 0 0 0 0 0 0 0 0 0 0 0 127 0" result="hardAlpha"/>
<feOffset dy="4"/>
<feGaussianBlur stdDeviation="2"/>
<feComposite in2="hardAlpha" operator="out"/>
<feColorMatrix type="matrix" values="0 0 0 0 0 0 0 0 0 0 0 0 0 0 0 0 0 0 0.25 0"/>
<feBlend mode="normal" in2="BackgroundImageFix" result="effect1_dropShadow_39_791"/>
<feBlend mode="normal" in="SourceGraphic" in2="effect1_dropShadow_39_791" result="shape"/>
</filter>
</defs>
</svg>
