<svg width="150" height="135" viewBox="0 0 150 135" fill="none" xmlns="http://www.w3.org/2000/svg">
<g clip-path="url(#clip0_38_755)">
<path d="M76.8194 0.29349L71.9387 1.55213L11.807 17.0589L6.92631 18.3175C4.55726 18.9313 2.52841 20.4597 1.28488 22.5675C0.041342 24.6753 -0.315327 27.1903 0.293121 29.5607L21.4571 111.63C22.0708 113.999 23.5993 116.028 25.7071 117.271C27.8148 118.515 30.3298 118.871 32.7002 118.263L32.7129 118.26L102.581 100.242L102.593 100.239C104.962 99.6251 106.991 98.0967 108.235 95.9889C109.478 93.8811 109.835 91.3661 109.227 88.9957L88.0626 6.92672C87.4488 4.55767 85.9204 2.52881 83.8126 1.28527C81.7048 0.0417229 79.1899 -0.314954 76.8194 0.29349Z" fill="#F2F2F2"/>
<path d="M77.4837 2.86659L71.7028 4.35737L13.3713 19.3999L7.59048 20.8906C5.90342 21.3277 4.45863 22.4162 3.57307 23.9172C2.68751 25.4182 2.43352 27.2091 2.86681 28.8972L24.0308 110.966C24.4678 112.653 25.5563 114.098 27.0573 114.984C28.5583 115.869 30.3493 116.123 32.0373 115.69L32.0499 115.687L101.918 97.6691L101.93 97.6658C103.618 97.2287 105.062 96.1402 105.948 94.6393C106.833 93.1383 107.087 91.3473 106.654 89.6593L85.4901 7.59027C85.0531 5.90323 83.9646 4.45845 82.4637 3.57289C80.9627 2.68733 79.1717 2.43332 77.4837 2.86659Z" fill="white"/>
<path d="M73.118 29.4427L37.7735 38.5573C37.3788 38.6591 36.9597 38.5999 36.6086 38.3928C36.2575 38.1856 36.003 37.8475 35.9012 37.4527C35.7994 37.0579 35.8586 36.6389 36.0658 36.2878C36.2729 35.9367 36.6111 35.6822 37.0058 35.5804L72.3503 26.4658C72.7449 26.3644 73.1637 26.4238 73.5145 26.631C73.8653 26.8382 74.1196 27.1762 74.2213 27.5707C74.323 27.9653 74.264 28.384 74.0571 28.7351C73.8502 29.0861 73.5124 29.3406 73.118 29.4427Z" fill="#F2F2F2"/>
<path d="M80.5538 32.8829L39.0694 43.5808C38.6747 43.6826 38.2556 43.6235 37.9045 43.4163C37.5534 43.2091 37.2989 42.871 37.1971 42.4762C37.0953 42.0815 37.1545 41.6624 37.3617 41.3113C37.5688 40.9602 37.907 40.7057 38.3017 40.6039L79.7861 29.906C80.1808 29.8042 80.5999 29.8633 80.951 30.0705C81.3021 30.2777 81.5566 30.6158 81.6584 31.0106C81.7602 31.4053 81.701 31.8244 81.4938 32.1755C81.2867 32.5266 80.9485 32.7811 80.5538 32.8829Z" fill="#F2F2F2"/>
<path d="M78.9237 51.9555L43.5792 61.0701C43.3837 61.1205 43.1802 61.132 42.9804 61.1037C42.7805 61.0755 42.5881 61.0082 42.4143 60.9056C42.2404 60.803 42.0885 60.6672 41.9671 60.5059C41.8457 60.3446 41.7573 60.161 41.7069 59.9655C41.6565 59.7701 41.6451 59.5666 41.6733 59.3667C41.7015 59.1668 41.7689 58.9745 41.8714 58.8006C41.974 58.6267 42.1098 58.4748 42.2711 58.3534C42.4324 58.2321 42.616 58.1436 42.8115 58.0932L78.156 48.9786C78.3514 48.9282 78.5549 48.9168 78.7548 48.945C78.9547 48.9732 79.147 49.0406 79.3209 49.1431C79.4948 49.2457 79.6467 49.3815 79.7681 49.5428C79.8895 49.7041 79.9779 49.8877 80.0283 50.0832C80.0787 50.2787 80.0901 50.4822 80.0619 50.682C80.0336 50.8819 79.9663 51.0743 79.8637 51.2481C79.7612 51.422 79.6254 51.5739 79.4641 51.6953C79.3028 51.8167 79.1191 51.9051 78.9237 51.9555Z" fill="#F2F2F2"/>
<path d="M86.3594 55.3957L44.8751 66.0937C44.6796 66.1441 44.4761 66.1555 44.2763 66.1272C44.0764 66.099 43.884 66.0317 43.7102 65.9291C43.5363 65.8265 43.3844 65.6907 43.263 65.5294C43.1416 65.3681 43.0532 65.1845 43.0028 64.989C42.9524 64.7936 42.941 64.5901 42.9692 64.3902C42.9974 64.1903 43.0648 63.998 43.1673 63.8241C43.2699 63.6503 43.4057 63.4983 43.567 63.3769C43.7283 63.2556 43.9119 63.1672 44.1074 63.1168L85.5918 52.4188C85.9865 52.317 86.4055 52.3762 86.7567 52.5833C87.1078 52.7905 87.3622 53.1286 87.464 53.5234C87.5658 53.9181 87.5067 54.3372 87.2995 54.6883C87.0923 55.0394 86.7542 55.2939 86.3594 55.3957Z" fill="#F2F2F2"/>
<path d="M84.7293 74.4683L49.3848 83.5829C48.9902 83.6844 48.5714 83.6251 48.2205 83.4179C47.8696 83.2107 47.6153 82.8727 47.5135 82.4781C47.4118 82.0835 47.4709 81.6646 47.6778 81.3136C47.8848 80.9626 48.2226 80.7081 48.6171 80.606L83.9616 71.4914C84.3564 71.3896 84.7754 71.4488 85.1265 71.656C85.4776 71.8631 85.7321 72.2013 85.8339 72.596C85.9357 72.9908 85.8765 73.4098 85.6693 73.7609C85.4622 74.1121 85.124 74.3665 84.7293 74.4683Z" fill="#F2F2F2"/>
<path d="M92.1645 77.9085L50.6801 88.6065C50.4846 88.6571 50.281 88.6686 50.081 88.6405C49.881 88.6124 49.6885 88.5452 49.5145 88.4426C49.3405 88.3401 49.1884 88.2042 49.0669 88.0429C48.9454 87.8815 48.8569 87.6978 48.8065 87.5022C48.7561 87.3066 48.7447 87.103 48.773 86.903C48.8013 86.703 48.8687 86.5106 48.9714 86.3367C49.0741 86.1628 49.2101 86.0108 49.3715 85.8895C49.533 85.7681 49.7168 85.6798 49.9124 85.6296L91.3968 74.9316C91.7915 74.8298 92.2106 74.889 92.5617 75.0961C92.9128 75.3033 93.1673 75.6414 93.2691 76.0362C93.3709 76.4309 93.3117 76.85 93.1045 77.2011C92.8974 77.5522 92.5592 77.8067 92.1645 77.9085Z" fill="#F2F2F2"/>
<path d="M31.7397 47.903L19.2316 51.1286C19.0423 51.1772 18.8415 51.1487 18.6732 51.0494C18.5049 50.9501 18.3828 50.7881 18.3338 50.599L15.4626 39.465C15.414 39.2758 15.4425 39.0749 15.5418 38.9066C15.6411 38.7383 15.8031 38.6163 15.9923 38.5673L28.5004 35.3417C28.6896 35.2931 28.8905 35.3216 29.0588 35.4209C29.2271 35.5202 29.3491 35.6822 29.3981 35.8713L32.2693 47.0053C32.3179 47.1946 32.2895 47.3954 32.1902 47.5637C32.0909 47.732 31.9289 47.854 31.7397 47.903Z" fill="#E6E6E6"/>
<path d="M37.5453 70.4158L25.0373 73.6414C24.848 73.69 24.6472 73.6615 24.4789 73.5623C24.3106 73.463 24.1885 73.3009 24.1395 73.1118L21.2683 61.9778C21.2197 61.7886 21.2482 61.5877 21.3475 61.4194C21.4468 61.2511 21.6088 61.1291 21.7979 61.0801L34.306 57.8545C34.4953 57.8059 34.6961 57.8344 34.8644 57.9337C35.0327 58.033 35.1548 58.195 35.2038 58.3842L38.075 69.5181C38.1236 69.7074 38.0951 69.9082 37.9958 70.0765C37.8965 70.2448 37.7345 70.3668 37.5453 70.4158Z" fill="#E6E6E6"/>
<path d="M43.351 92.9287L30.8429 96.1542C30.6537 96.2028 30.4528 96.1744 30.2845 96.0751C30.1162 95.9758 29.9942 95.8138 29.9452 95.6246L27.074 84.4907C27.0254 84.3014 27.0538 84.1006 27.1531 83.9323C27.2524 83.7639 27.4144 83.6419 27.6036 83.5929L40.1117 80.3673C40.301 80.3187 40.5018 80.3472 40.6701 80.4465C40.8384 80.5458 40.9605 80.7078 41.0095 80.897L43.8807 92.0309C43.9293 92.2202 43.9008 92.421 43.8015 92.5893C43.7022 92.7576 43.5402 92.8797 43.351 92.9287Z" fill="#E6E6E6"/>
<path d="M125.567 21.097H53.3869C50.9396 21.0997 48.5933 22.0731 46.8629 23.8036C45.1324 25.5341 44.159 27.8803 44.1562 30.3276V115.082C44.159 117.529 45.1324 119.875 46.8629 121.606C48.5933 123.336 50.9396 124.309 53.3869 124.312H125.567C128.014 124.309 130.36 123.336 132.091 121.606C133.821 119.875 134.794 117.529 134.797 115.082V30.3276C134.794 27.8803 133.821 25.5341 132.091 23.8036C130.36 22.0731 128.014 21.0997 125.567 21.097Z" fill="#E6E6E6"/>
<path d="M125.567 23.7543H53.3868C51.6441 23.7562 49.9732 24.4494 48.7409 25.6817C47.5086 26.914 46.8154 28.5848 46.8135 30.3276V115.082C46.8154 116.824 47.5086 118.495 48.7409 119.727C49.9732 120.96 51.6441 121.653 53.3868 121.655H125.567C127.309 121.653 128.98 120.96 130.212 119.727C131.445 118.495 132.138 116.824 132.14 115.082V30.3276C132.138 28.5848 131.445 26.914 130.212 25.6817C128.98 24.4494 127.309 23.7562 125.567 23.7543Z" fill="white"/>
<path d="M133.15 134.624C142.456 134.624 150 127.08 150 117.774C150 108.468 142.456 100.924 133.15 100.924C123.844 100.924 116.3 108.468 116.3 117.774C116.3 127.08 123.844 134.624 133.15 134.624Z" fill="#6C63FF"/>
<path d="M141.209 115.576H135.348V109.715C135.348 109.132 135.116 108.573 134.704 108.161C134.292 107.749 133.733 107.517 133.15 107.517C132.567 107.517 132.008 107.749 131.596 108.161C131.184 108.573 130.952 109.132 130.952 109.715V115.576H125.091C124.508 115.576 123.949 115.808 123.537 116.22C123.125 116.632 122.894 117.191 122.894 117.774C122.894 118.357 123.125 118.916 123.537 119.328C123.949 119.74 124.508 119.972 125.091 119.972H130.952V125.833C130.952 126.416 131.184 126.975 131.596 127.387C132.008 127.799 132.567 128.031 133.15 128.031C133.733 128.031 134.292 127.799 134.704 127.387C135.116 126.975 135.348 126.416 135.348 125.833V119.972H141.209C141.792 119.972 142.351 119.74 142.763 119.328C143.175 118.916 143.407 118.357 143.407 117.774C143.407 117.191 143.175 116.632 142.763 116.22C142.351 115.808 141.792 115.576 141.209 115.576Z" fill="white"/>
<path d="M114.704 70.3263H78.2029C78.0009 70.3266 77.8009 70.287 77.6142 70.2098C77.4275 70.1327 77.2578 70.0195 77.1149 69.8767C76.972 69.734 76.8586 69.5644 76.7812 69.3778C76.7039 69.1912 76.6641 68.9912 76.6641 68.7892C76.6641 68.5872 76.7039 68.3872 76.7812 68.2006C76.8586 68.014 76.972 67.8444 77.1149 67.7017C77.2578 67.5589 77.4275 67.4457 77.6142 67.3686C77.8009 67.2914 78.0009 67.2518 78.2029 67.2521H114.704C115.111 67.2525 115.502 67.4147 115.79 67.7029C116.077 67.9911 116.239 68.3818 116.239 68.7892C116.239 69.1966 116.077 69.5873 115.79 69.8755C115.502 70.1637 115.111 70.3259 114.704 70.3263Z" fill="#E6E6E6"/>
<path d="M121.044 75.5142H78.2029C78.0009 75.5144 77.8009 75.4748 77.6142 75.3977C77.4275 75.3205 77.2578 75.2074 77.1149 75.0646C76.972 74.9218 76.8586 74.7523 76.7812 74.5657C76.7039 74.3791 76.6641 74.1791 76.6641 73.9771C76.6641 73.7751 76.7039 73.575 76.7812 73.3884C76.8586 73.2018 76.972 73.0323 77.1149 72.8895C77.2578 72.7468 77.4275 72.6336 77.6142 72.5564C77.8009 72.4793 78.0009 72.4397 78.2029 72.4399H121.044C121.452 72.4399 121.843 72.6019 122.131 72.8901C122.42 73.1784 122.582 73.5694 122.582 73.9771C122.582 74.3847 122.42 74.7757 122.131 75.064C121.843 75.3523 121.452 75.5142 121.044 75.5142Z" fill="#E6E6E6"/>
<path d="M114.704 93.5757H78.2029C78.0009 93.5759 77.8009 93.5363 77.6142 93.4592C77.4275 93.382 77.2578 93.2688 77.1149 93.1261C76.972 92.9833 76.8586 92.8138 76.7812 92.6272C76.7039 92.4406 76.6641 92.2405 76.6641 92.0385C76.6641 91.8365 76.7039 91.6365 76.7812 91.4499C76.8586 91.2633 76.972 91.0938 77.1149 90.951C77.2578 90.8082 77.4275 90.6951 77.6142 90.6179C77.8009 90.5408 78.0009 90.5012 78.2029 90.5014H114.704C115.111 90.5014 115.502 90.6633 115.791 90.9516C116.079 91.2399 116.241 91.6309 116.241 92.0385C116.241 92.4462 116.079 92.8372 115.791 93.1255C115.502 93.4137 115.111 93.5757 114.704 93.5757Z" fill="#E6E6E6"/>
<path d="M121.044 98.7636H78.2029C78.0009 98.7638 77.8009 98.7242 77.6142 98.647C77.4275 98.5699 77.2578 98.4567 77.1149 98.3139C76.972 98.1712 76.8586 98.0017 76.7812 97.815C76.7039 97.6284 76.6641 97.4284 76.6641 97.2264C76.6641 97.0244 76.7039 96.8244 76.7812 96.6378C76.8586 96.4512 76.972 96.2816 77.1149 96.1389C77.2578 95.9961 77.4275 95.8829 77.6142 95.8058C77.8009 95.7286 78.0009 95.689 78.2029 95.6893H121.044C121.246 95.689 121.447 95.7286 121.633 95.8058C121.82 95.8829 121.99 95.9961 122.133 96.1389C122.275 96.2816 122.389 96.4512 122.466 96.6378C122.544 96.8244 122.583 97.0244 122.583 97.2264C122.583 97.4284 122.544 97.6284 122.466 97.815C122.389 98.0017 122.275 98.1712 122.133 98.3139C121.99 98.4567 121.82 98.5699 121.633 98.647C121.447 98.7242 121.246 98.7638 121.044 98.7636Z" fill="#E6E6E6"/>
<path d="M70.0264 77.8693H57.1091C56.9137 77.8691 56.7264 77.7913 56.5882 77.6532C56.45 77.515 56.3723 77.3276 56.3721 77.1322V65.634C56.3723 65.4386 56.45 65.2513 56.5882 65.1131C56.7264 64.9749 56.9137 64.8972 57.1091 64.897H70.0264C70.2218 64.8972 70.4092 64.9749 70.5474 65.1131C70.6855 65.2513 70.7633 65.4386 70.7635 65.634V77.1322C70.7633 77.3276 70.6855 77.515 70.5474 77.6532C70.4092 77.7913 70.2218 77.8691 70.0264 77.8693Z" fill="#E6E6E6"/>
<path d="M70.0264 101.119H57.1091C56.9137 101.118 56.7264 101.041 56.5882 100.903C56.45 100.764 56.3723 100.577 56.3721 100.382V88.8834C56.3723 88.688 56.45 88.5006 56.5882 88.3624C56.7264 88.2242 56.9137 88.1465 57.1091 88.1463H70.0264C70.2218 88.1465 70.4092 88.2242 70.5474 88.3624C70.6855 88.5006 70.7633 88.688 70.7635 88.8834V100.382C70.7633 100.577 70.6855 100.764 70.5474 100.903C70.4092 101.041 70.2218 101.118 70.0264 101.119Z" fill="#E6E6E6"/>
<path d="M114.745 44.4452H87.834C87.4263 44.4452 87.0354 44.2833 86.7471 43.995C86.4588 43.7067 86.2969 43.3158 86.2969 42.9081C86.2969 42.5004 86.4588 42.1094 86.7471 41.8212C87.0354 41.5329 87.4263 41.3709 87.834 41.3709H114.745C115.152 41.3709 115.543 41.5329 115.832 41.8212C116.12 42.1094 116.282 42.5004 116.282 42.9081C116.282 43.3158 116.12 43.7067 115.832 43.995C115.543 44.2833 115.152 44.4452 114.745 44.4452Z" fill="#CCCCCC"/>
<path d="M121.085 49.6331H87.834C87.6322 49.6331 87.4323 49.5933 87.2458 49.5161C87.0593 49.4388 86.8898 49.3256 86.7471 49.1829C86.6044 49.0401 86.4911 48.8707 86.4139 48.6842C86.3366 48.4977 86.2969 48.2978 86.2969 48.096C86.2969 47.8941 86.3366 47.6942 86.4139 47.5077C86.4911 47.3212 86.6044 47.1518 86.7471 47.009C86.8898 46.8663 87.0593 46.7531 87.2458 46.6758C87.4323 46.5986 87.6322 46.5588 87.834 46.5588H121.085C121.493 46.5588 121.884 46.7208 122.172 47.009C122.461 47.2973 122.622 47.6883 122.622 48.096C122.622 48.5036 122.461 48.8946 122.172 49.1829C121.884 49.4712 121.493 49.6331 121.085 49.6331Z" fill="#CCCCCC"/>
<path d="M81.8783 55.9202H57.0691C56.8737 55.92 56.6863 55.8422 56.5482 55.7041C56.41 55.5659 56.3322 55.3785 56.332 55.1831V35.8209C56.3322 35.6255 56.41 35.4382 56.5482 35.3C56.6863 35.1618 56.8737 35.0841 57.0691 35.0839H81.8783C82.0737 35.0841 82.2611 35.1618 82.3992 35.3C82.5374 35.4382 82.6151 35.6255 82.6154 35.8209V55.1831C82.6151 55.3785 82.5374 55.5659 82.3992 55.7041C82.2611 55.8422 82.0737 55.92 81.8783 55.9202Z" fill="#6C63FF"/>
</g>
<defs>
<clipPath id="clip0_38_755">
<rect width="150" height="134.624" fill="white"/>
</clipPath>
</defs>
</svg>
