<svg width="30" height="30" viewBox="0 0 30 30" fill="none" xmlns="http://www.w3.org/2000/svg">
<path d="M11.4367 9.78913C11.1868 8.95609 11.0619 8.53956 11.039 8.20366C10.9387 6.72969 11.9265 5.40211 13.3671 5.07463C13.6954 5 14.1303 5 15 5V5C15.8697 5 16.3046 5 16.6329 5.07463C18.0735 5.40211 19.0613 6.72969 18.961 8.20366C18.9381 8.53956 18.8132 8.95609 18.5633 9.78913L16.6092 16.3027C16.4699 16.7669 16.4003 16.999 16.2535 17.1642C16.1626 17.2666 16.0516 17.3492 15.9274 17.4069C15.727 17.5 15.4846 17.5 15 17.5V17.5C14.5154 17.5 14.273 17.5 14.0726 17.4069C13.9484 17.3492 13.8374 17.2666 13.7465 17.1642C13.5997 16.999 13.5301 16.7669 13.3908 16.3027L11.4367 9.78913Z" stroke="white"/>
<circle cx="15" cy="23.75" r="2.5" stroke="white"/>
</svg>
