<svg width="40" height="40" viewBox="0 0 40 40" fill="none" xmlns="http://www.w3.org/2000/svg">
<path d="M10.7464 14.9491C10.868 13.8545 10.9288 13.3073 11.0381 12.8409C11.8052 9.56876 14.5356 7.12489 17.8725 6.72389C18.348 6.66675 18.8987 6.66675 20 6.66675V6.66675C21.1013 6.66675 21.652 6.66675 22.1275 6.72389C25.4644 7.12489 28.1948 9.56876 28.9619 12.8409C29.0712 13.3073 29.132 13.8545 29.2536 14.9491L29.6733 18.7261C29.8066 19.926 29.8732 20.5259 30.0269 21.1039C30.1169 21.4423 30.229 21.7744 30.3626 22.0981C30.5906 22.6511 30.9011 23.1687 31.5222 24.2038L33.1826 26.9711C33.9884 28.314 34.3912 28.9855 34.104 29.4928C33.8168 30.0001 33.0337 30.0001 31.4676 30.0001H8.53238C6.96627 30.0001 6.18322 30.0001 5.89599 29.4928C5.60876 28.9855 6.01164 28.314 6.81739 26.9711L8.47776 24.2038C9.09886 23.1687 9.40941 22.6511 9.63745 22.0981C9.77096 21.7744 9.88307 21.4423 9.97306 21.1039C10.1268 20.5259 10.1934 19.926 10.3267 18.7261L10.7464 14.9491Z" stroke="#6C63FF"/>
<path d="M15.1704 30.6764C15.4552 31.9168 16.083 33.0128 16.9562 33.7946C17.8294 34.5763 18.8993 35 20 35C21.1007 35 22.1706 34.5763 23.0438 33.7946C23.917 33.0128 24.5448 31.9168 24.8296 30.6764" stroke="#6C63FF" stroke-linecap="round"/>
</svg>
