<svg width="64" height="64" viewBox="0 0 64 64" fill="none" xmlns="http://www.w3.org/2000/svg">
<path d="M64 57.4933C64 60.9067 60.9067 64 57.4933 64H6.50667C3.09333 64 0 60.9067 0 57.4933V6.50667C0 3.09333 3.09333 0 6.50667 0H57.4933C60.9067 0 64 3.09333 64 6.50667V57.4933Z" fill="#08446D"/>
<path d="M57.4933 0C60.9067 0 64 3.09333 64 6.50667V57.4933C64 60.9067 60.9067 64 57.4933 64H6.50667C3.09333 64 0 60.9067 0 57.4933" fill="#00233F"/>
<path d="M18.1333 26.6665C18.1333 27.3065 17.7067 27.7332 17.0667 27.7332C16.4267 27.7332 16 27.3065 16 26.6665V9.59987C16 8.95987 16.4267 8.5332 17.0667 8.5332C17.7067 8.5332 18.1333 8.95987 18.1333 9.59987V26.6665Z" fill="white"/>
<path d="M9.17333 19.1997C8.53333 19.1997 8 18.7731 8 18.1331C8 17.4931 8.53333 17.0664 9.17333 17.0664H25.7067C26.3467 17.0664 26.88 17.4931 26.88 18.1331C26.88 18.7731 26.3467 19.1997 25.7067 19.1997H9.17333Z" fill="white"/>
<path d="M38.2935 19.1997C37.6535 19.1997 37.1201 18.7731 37.1201 18.1331C37.1201 17.4931 37.6535 17.0664 38.2935 17.0664H54.8268C55.4668 17.0664 56.0001 17.4931 56.0001 18.1331C56.0001 18.7731 55.4668 19.1997 54.8268 19.1997H38.2935Z" fill="white"/>
<path d="M12.3734 51.4131C11.9467 51.8398 11.2 51.8398 10.7734 51.4131C10.3467 50.9864 10.3467 50.2398 10.7734 49.8131L22.4 38.0798C22.8267 37.6531 23.5734 37.6531 24 38.0798C24.4267 38.5064 24.4267 39.2531 24 39.6798L12.3734 51.4131Z" fill="white"/>
<path d="M10.7734 39.6798C10.3467 39.2531 10.3467 38.5064 10.7734 38.0798C11.2 37.6531 11.9467 37.6531 12.3734 38.0798L24 49.7064C24.4267 50.1331 24.4267 50.8798 24 51.3064C23.5734 51.7331 22.8267 51.7331 22.4 51.3064L10.7734 39.6798Z" fill="white"/>
<path d="M38.2935 50.1333C37.6535 50.1333 37.1201 49.7067 37.1201 49.0667C37.1201 48.4267 37.6535 48 38.2935 48H54.8268C55.4668 48 56.0001 48.4267 56.0001 49.0667C56.0001 49.7067 55.4668 50.1333 54.8268 50.1333H38.2935Z" fill="#E8961F"/>
<path d="M38.2935 41.6001C37.6535 41.6001 37.1201 41.1735 37.1201 40.5335C37.1201 39.8935 37.6535 39.4668 38.2935 39.4668H54.8268C55.4668 39.4668 56.0001 39.8935 56.0001 40.5335C56.0001 41.1735 55.4668 41.6001 54.8268 41.6001H38.2935Z" fill="#E8961F"/>
</svg>
