<svg width="32" height="20" viewBox="0 0 32 20" fill="none" xmlns="http://www.w3.org/2000/svg">
<path d="M16 14C18.2091 14 20 12.2091 20 10C20 7.79086 18.2091 6 16 6C13.7909 6 12 7.79086 12 10C12 12.2091 13.7909 14 16 14Z" fill="#35B350"/>
<path d="M0 2C0 0.895431 0.895431 0 2 0H30C31.1046 0 32 0.895431 32 2V18C32 19.1046 31.1046 20 30 20H2C0.895431 20 0 19.1046 0 18V2ZM6 2C6 4.20914 4.20914 6 2 6V14C4.20914 14 6 15.7909 6 18H26C26 15.7909 27.7909 14 30 14V6C27.7909 6 26 4.20914 26 2H6Z" fill="#35B350"/>
</svg>
