<svg width="64" height="64" viewBox="0 0 64 64" fill="none" xmlns="http://www.w3.org/2000/svg">
<path d="M40.4862 1.96777H23.5132V13.4579H40.4862V1.96777Z" fill="#36A1CB"/>
<path d="M31.9998 33.5361C31.3472 33.5361 30.7448 33.3266 30.2515 32.9741V35.4046V59.821V62.2515C30.2515 63.217 31.0342 63.9999 31.9998 63.9999C32.9652 63.9999 33.7482 63.217 33.7482 62.2515V59.821V35.4049V32.9744C33.2547 33.3266 32.6522 33.5361 31.9998 33.5361Z" fill="#7C7A75"/>
<path d="M28.9858 25.4766V27.7144V30.7151V32.9529C28.9858 34.6173 30.3353 35.9667 31.9998 35.9667C33.6642 35.9667 35.0136 34.6176 35.0136 32.9529V30.7151V27.7144V25.4766H28.9858Z" fill="#FFB92E"/>
<path d="M31.7832 32.9534V30.7156V27.7149V25.4771H28.9858V27.7149V30.7156V32.9534C28.9858 34.6178 30.3353 35.9672 31.9998 35.9672C32.505 35.9672 32.9803 35.8414 33.3985 35.6216C32.4388 35.1174 31.7832 34.1128 31.7832 32.9534Z" fill="#EF9A1D"/>
<path d="M29.5031 42.2051C29.0554 42.2051 28.6408 41.9161 28.5014 41.4662C28.3298 40.9129 28.6395 40.3254 29.193 40.1539L33.9997 38.6649C34.5528 38.4936 35.1407 38.8031 35.3121 39.3565C35.4837 39.9099 35.1738 40.4974 34.6206 40.6689L29.8138 42.1579C29.7107 42.1899 29.6061 42.2051 29.5031 42.2051Z" fill="#CCC3A8"/>
<path d="M29.5031 46.5322C29.0554 46.5322 28.6408 46.2432 28.5014 45.7934C28.3298 45.24 28.6395 44.6525 29.193 44.481L33.9997 42.9921C34.5528 42.8206 35.1407 43.1304 35.3121 43.6837C35.4837 44.2371 35.1738 44.8246 34.6206 44.9961L29.8138 46.485C29.7107 46.5169 29.6061 46.5322 29.5031 46.5322Z" fill="#CCC3A8"/>
<path d="M29.5031 50.8596C29.0554 50.8596 28.6408 50.5709 28.5014 50.1209C28.3298 49.5674 28.6395 48.9799 29.193 48.8084L33.9997 47.3193C34.5528 47.1478 35.1407 47.4573 35.3121 48.0108C35.4837 48.5643 35.1741 49.1518 34.6206 49.3233L29.8138 50.8123C29.7107 50.8444 29.6061 50.8596 29.5031 50.8596Z" fill="#CCC3A8"/>
<path d="M29.5031 55.1871C29.0554 55.1871 28.6408 54.8982 28.5014 54.4482C28.3298 53.8948 28.6395 53.3073 29.193 53.1358L33.9997 51.6469C34.5528 51.4753 35.1407 51.7851 35.3121 52.3386C35.4837 52.8919 35.1738 53.4794 34.6206 53.6509L29.8138 55.1398C29.7107 55.1717 29.6061 55.1871 29.5031 55.1871Z" fill="#CCC3A8"/>
<path d="M29.5031 59.5141C29.0554 59.5141 28.6408 59.2252 28.5014 58.7752C28.3298 58.2219 28.6395 57.6344 29.193 57.4629L33.9997 55.9739C34.5528 55.8029 35.1407 56.1121 35.3121 56.6655C35.4837 57.2189 35.1738 57.8064 34.6206 57.9779L29.8138 59.4669C29.7107 59.4989 29.6061 59.5141 29.5031 59.5141Z" fill="#CCC3A8"/>
<path d="M35.0138 32.0741H28.986C28.4066 32.0741 27.937 31.6044 27.937 31.0251C27.937 30.4456 28.4066 29.9761 28.986 29.9761H35.0138C35.5933 29.9761 36.0628 30.4456 36.0628 31.0251C36.0628 31.6043 35.5933 32.0741 35.0138 32.0741Z" fill="#F28838"/>
<path d="M30.7344 31.0251C30.7344 30.4456 31.204 29.9761 31.7834 29.9761H28.986C28.4066 29.9761 27.937 30.4456 27.937 31.0251C27.937 31.6044 28.4066 32.0741 28.986 32.0741H31.7834C31.2041 32.0741 30.7344 31.6043 30.7344 31.0251Z" fill="#EF711D"/>
<path d="M40.4546 15.5421C40.3251 15.347 40.1064 15.23 39.8722 15.23H24.1279C23.8938 15.23 23.6753 15.3472 23.5456 15.5421C23.4161 15.7371 23.3926 15.984 23.4833 16.1999L28.1372 27.2859C28.2462 27.5456 28.5004 27.7144 28.7819 27.7144H35.2186C35.5003 27.7144 35.7544 27.5454 35.8633 27.2859L40.5172 16.1999C40.6077 15.984 40.5843 15.7371 40.4546 15.5421Z" fill="#36A1CB"/>
<path d="M31.1509 27.2859L26.4971 16.1999C26.4064 15.9839 26.4299 15.7369 26.5596 15.5421C26.6891 15.347 26.9077 15.23 27.1418 15.23H24.1279C23.8938 15.23 23.6753 15.3472 23.5456 15.5421C23.4161 15.7371 23.3926 15.984 23.4833 16.1999L28.1372 27.2859C28.2462 27.5456 28.5004 27.7144 28.7819 27.7144H31.7958C31.5141 27.7145 31.2598 27.5456 31.1509 27.2859Z" fill="#2B80AF"/>
<path d="M26.3106 1.96777H23.5132V13.4579H26.3106V1.96777Z" fill="#2B80AF"/>
<path d="M46.6973 3.93675H51.6468C52.615 3.93675 53.3998 3.152 53.3998 2.18375V1.753C53.3998 0.78475 52.615 0 51.6468 0H41.1103H18.1341H12.3531C11.385 0 10.6001 0.78475 10.6001 1.753V2.18375C10.6001 3.15187 11.3848 3.93675 12.3531 3.93675H18.1341H43.1538" fill="#CCC3A8"/>
<path d="M13.3975 2.18375V1.753C13.3975 0.78475 14.1823 0 15.1505 0H12.3531C11.385 0 10.6001 0.78475 10.6001 1.753V2.18375C10.6001 3.15187 11.3848 3.93675 12.3531 3.93675H15.1505C14.1823 3.93675 13.3975 3.15187 13.3975 2.18375Z" fill="#C9B585"/>
<path d="M40.575 15.9657C41.5921 15.9657 42.4165 15.1412 42.4165 14.1242V13.6188C42.4165 12.6018 41.5921 11.7773 40.575 11.7773H38.6169H25.3831H23.425C22.408 11.7773 21.5835 12.6018 21.5835 13.6188V14.1242C21.5835 15.1412 22.408 15.9657 23.425 15.9657" fill="#8BD8F7"/>
<path d="M24.3809 14.1242V13.6188C24.3809 12.6018 25.2054 11.7773 26.2224 11.7773H25.3831H23.425C22.408 11.7773 21.5835 12.6018 21.5835 13.6188V14.1242C21.5835 15.1412 22.408 15.9657 23.425 15.9657H26.2224C25.2052 15.9657 24.3809 15.1413 24.3809 14.1242Z" fill="#57BEDD"/>
</svg>
