<svg width="30" height="30" viewBox="0 0 30 30" fill="none" xmlns="http://www.w3.org/2000/svg">
    <path fill-rule="evenodd" clip-rule="evenodd" d="M16.2938 8.70599L18.7498 6.25001C19.7668 5.23295 20.2754 4.72442 20.887 4.61161C21.1268 4.56737 21.3727 4.56737 21.6125 4.61161C22.2242 4.72442 22.7327 5.23294 23.7498 6.24999L23.7498 6.25C24.7668 7.26706 25.2754 7.77558 25.3882 8.38723C25.4324 8.62706 25.4324 8.87295 25.3882 9.11277C25.2754 9.72442 24.7668 10.2329 23.7498 11.25L21.3216 13.6782C19.2381 12.4797 17.5077 10.7624 16.2938 8.70599ZM14.8394 10.1603L5.85615 19.1436C5.43109 19.5687 5.21856 19.7812 5.07883 20.0423C4.93909 20.3034 4.88015 20.5981 4.76226 21.1876L3.89686 25.5146C3.83034 25.8472 3.79708 26.0135 3.89168 26.1081C3.98629 26.2027 4.1526 26.1694 4.48521 26.1029L8.81219 25.2375C9.40164 25.1196 9.69637 25.0607 9.95746 24.9209C10.2186 24.7812 10.4311 24.5687 10.8562 24.1436L19.8635 15.1363C17.8309 13.8736 16.1149 12.1694 14.8394 10.1603Z" fill="#6C63FF"/>
</svg>
