<svg width="32" height="32" viewBox="0 0 32 32" fill="none" xmlns="http://www.w3.org/2000/svg">
<rect width="32" height="32" fill="#FBFBFF"/>
<path fill-rule="evenodd" clip-rule="evenodd" d="M28 16C28 22.6274 22.6274 28 16 28C9.37258 28 4 22.6274 4 16C4 9.37258 9.37258 4 16 4C22.6274 4 28 9.37258 28 16ZM17.3333 10.6667C17.3333 11.403 16.7364 12 16 12C15.2636 12 14.6667 11.403 14.6667 10.6667C14.6667 9.93029 15.2636 9.33333 16 9.33333C16.7364 9.33333 17.3333 9.93029 17.3333 10.6667ZM17 22.6667V14.6667H15V22.6667H17Z" fill="#6C63FF"/>
</svg>
