<svg width="40" height="40" viewBox="0 0 40 40" fill="none" xmlns="http://www.w3.org/2000/svg">
<ellipse cx="19.9999" cy="10" rx="11.6667" ry="5" stroke="#6C63FF"/>
<path d="M31.6666 30C31.6666 30.6566 31.3648 31.3068 30.7785 31.9134C30.1922 32.52 29.3328 33.0712 28.2495 33.5355C27.1661 33.9998 25.88 34.3681 24.4646 34.6194C23.0491 34.8707 21.532 35 19.9999 35C18.4678 35 16.9507 34.8707 15.5353 34.6194C14.1198 34.3681 12.8337 33.9998 11.7503 33.5355C10.667 33.0712 9.80763 32.52 9.22132 31.9134C8.63502 31.3068 8.33325 30.6566 8.33325 30" stroke="#6C63FF"/>
<path d="M31.6667 10V30" stroke="#6C63FF"/>
<path d="M8.33325 10V30" stroke="#6C63FF"/>
</svg>
