<svg width="300" height="180" viewBox="0 0 300 180" fill="none" xmlns="http://www.w3.org/2000/svg">
<g clip-path="url(#clip0_39_2193)">
<path d="M229.686 177.33C225.845 174.084 223.513 168.958 224.124 163.967C224.736 158.976 228.526 154.387 233.441 153.327C238.356 152.268 243.96 155.201 245.453 160.003C246.274 150.746 247.221 141.1 252.143 133.217C256.6 126.079 264.318 120.971 272.684 120.057C281.049 119.143 289.857 122.595 295.074 129.197C300.292 135.8 301.569 145.399 297.915 152.98C295.223 158.564 290.264 162.72 285.068 166.101C268.278 176.934 248.14 181.34 228.36 178.507L229.686 177.33Z" fill="#F2F2F2"/>
<path d="M286.804 122.786C279.901 128.408 273.569 134.696 267.898 141.559C259.024 152.263 251.842 164.263 246.604 177.143C246.221 178.083 247.747 178.492 248.126 177.563C256.696 156.63 270.378 138.181 287.919 123.902C288.707 123.26 287.585 122.15 286.804 122.786Z" fill="white"/>
<path d="M96.5749 176.448C101.85 171.99 105.055 164.949 104.214 158.094C103.374 151.238 98.1691 144.936 91.4178 143.481C84.6664 142.025 76.9704 146.055 74.9198 152.65C73.7912 139.935 72.4908 126.687 65.7307 115.859C59.6096 106.054 49.0077 99.0389 37.5177 97.7838C26.0276 96.5288 13.9301 101.269 6.76416 110.338C-0.401757 119.407 -2.1563 132.591 2.86252 143.003C6.55971 150.673 13.3712 156.381 20.508 161.025C43.2768 175.841 71.5215 182.02 98.3968 178.065" fill="#F2F2F2"/>
<path d="M18.1274 101.532C27.6081 109.254 36.3057 117.891 44.0942 127.317C51.8841 136.733 58.7422 146.883 64.5722 157.624C67.8309 163.649 70.7583 169.847 73.3413 176.192C73.868 177.482 71.7723 178.044 71.2515 176.768C66.6764 165.583 61.0162 154.873 54.3519 144.793C47.72 134.749 40.1294 125.372 31.6868 116.793C26.9116 111.944 21.8734 107.361 16.595 103.064C15.5131 102.183 17.0544 100.658 18.1274 101.532L18.1274 101.532Z" fill="white"/>
<path d="M215.344 178.966H89.4824V49.8276C89.4824 22.3525 111.835 0 139.31 0H165.517C192.992 0 215.344 22.3525 215.344 49.8276V178.966Z" fill="#F2F2F2"/>
<path d="M189.138 178.966H89.4826V49.8276C89.4551 39.2998 92.7888 29.038 98.9984 20.5364C99.2273 20.2244 99.4556 19.9165 99.691 19.6119C102.695 15.6726 106.269 12.2033 110.296 9.3186C110.523 9.15308 110.752 8.99044 110.984 8.82779C114.353 6.49586 117.998 4.58956 121.836 3.15227C122.064 3.0659 122.296 2.97935 122.528 2.89634C125.999 1.65775 129.597 0.809315 133.255 0.366712C133.482 0.335729 133.715 0.311485 133.948 0.28724C137.513 -0.0939564 141.108 -0.0939564 144.674 0.28724C144.906 0.311485 145.139 0.335726 145.368 0.367044C149.026 0.809675 152.622 1.658 156.092 2.89636C156.324 2.97937 156.556 3.06591 156.785 3.15245C160.575 4.57161 164.178 6.44947 167.511 8.74411C167.743 8.90323 167.975 9.06588 168.203 9.22852C170.46 10.8398 172.581 12.6349 174.542 14.5954C176.115 16.168 177.581 17.8442 178.93 19.6129C179.165 19.9165 179.393 20.2245 179.622 20.5359C185.831 29.0376 189.165 39.2996 189.138 49.8276V178.966Z" fill="#CCCCCC"/>
<path d="M181.035 121.207C184.082 121.207 186.552 118.737 186.552 115.69C186.552 112.643 184.082 110.172 181.035 110.172C177.988 110.172 175.518 112.643 175.518 115.69C175.518 118.737 177.988 121.207 181.035 121.207Z" fill="#6C63FF"/>
<path d="M205.034 175.098H200.806L198.795 158.791L205.035 158.792L205.034 175.098Z" fill="#FFB8B8"/>
<path d="M197.788 173.89H205.941V179.023H192.654C192.654 178.349 192.787 177.681 193.045 177.059C193.303 176.436 193.681 175.87 194.158 175.393C194.635 174.916 195.2 174.538 195.823 174.28C196.446 174.022 197.114 173.89 197.788 173.89Z" fill="#2F2E41"/>
<path d="M226.069 175.098H221.841L219.83 158.791L226.07 158.792L226.069 175.098Z" fill="#FFB8B8"/>
<path d="M218.821 173.89H226.974V179.023H213.688C213.688 178.349 213.82 177.681 214.078 177.059C214.336 176.436 214.714 175.87 215.191 175.393C215.668 174.916 216.234 174.538 216.856 174.28C217.479 174.022 218.147 173.89 218.821 173.89Z" fill="#2F2E41"/>
<path d="M183.827 116.783C183.523 116.335 183.321 115.825 183.235 115.291C183.149 114.756 183.181 114.209 183.329 113.688C183.477 113.167 183.738 112.685 184.093 112.276C184.447 111.867 184.888 111.54 185.382 111.32L199.753 71.7103L206.825 75.5694L190.416 113.421C190.732 114.277 190.723 115.218 190.391 116.067C190.059 116.917 189.427 117.614 188.614 118.029C187.802 118.443 186.866 118.545 185.984 118.315C185.101 118.086 184.334 117.54 183.827 116.783Z" fill="#FFB8B8"/>
<path d="M223.909 124.225C223.439 123.956 223.034 123.587 222.722 123.144C222.41 122.701 222.199 122.195 222.104 121.662C222.009 121.129 222.032 120.582 222.171 120.058C222.311 119.535 222.563 119.049 222.911 118.633L218.459 76.7337L226.506 77.1013L228.357 118.315C229.016 118.946 229.42 119.796 229.494 120.704C229.568 121.613 229.306 122.518 228.758 123.246C228.209 123.975 227.413 124.477 226.519 124.657C225.625 124.838 224.697 124.684 223.909 124.225Z" fill="#FFB8B8"/>
<path d="M211.071 64.3737C215.748 64.3737 219.54 60.5818 219.54 55.9043C219.54 51.2269 215.748 47.435 211.071 47.435C206.393 47.435 202.602 51.2269 202.602 55.9043C202.602 60.5818 206.393 64.3737 211.071 64.3737Z" fill="#FFB8B8"/>
<path d="M223.856 114.696H198.322L198.353 114.497C198.399 114.2 202.904 84.6909 199.581 75.0367C199.248 74.088 199.277 73.0495 199.664 72.1211C200.05 71.1927 200.766 70.44 201.674 70.0079H201.674C206.423 67.7716 215.539 65.0179 223.233 71.7008C224.365 72.7004 225.249 73.9496 225.815 75.3498C226.381 76.75 226.614 78.2627 226.495 79.7683L223.856 114.696Z" fill="#6C63FF"/>
<path d="M203.226 89.0519L191.73 86.7198L197.119 73.9509C197.441 72.7141 198.241 71.6558 199.343 71.008C200.445 70.3601 201.758 70.1757 202.996 70.4952C204.233 70.8147 205.294 71.6119 205.944 72.7121C206.595 73.8123 206.782 75.1255 206.466 76.3638L203.226 89.0519Z" fill="#6C63FF"/>
<path d="M217.948 93.3821L217.257 77.5403C216.733 74.5622 218.437 71.747 221.059 71.2869C223.682 70.8284 226.243 72.8938 226.769 75.8937L229.367 90.6964L217.948 93.3821Z" fill="#6C63FF"/>
<path d="M223.005 112.8C227.113 128.447 227.561 148.341 226.453 170.041L220.936 169.351L210.936 127.972L205.419 170.041L199.212 169.696C197.357 146.927 195.552 127.38 198.522 114.524L223.005 112.8Z" fill="#2F2E41"/>
<path d="M216.651 62.4497C215.071 64.1327 212.137 63.2292 211.931 60.9299C211.915 60.7514 211.916 60.5718 211.934 60.3935C212.041 59.375 212.629 58.4504 212.488 57.375C212.456 57.1074 212.357 56.8523 212.199 56.634C210.939 54.948 207.984 57.3881 206.796 55.8619C206.067 54.926 206.924 53.4525 206.364 52.4065C205.626 51.0259 203.441 51.707 202.07 50.9509C200.545 50.1097 200.636 47.7698 201.64 46.3466C202.864 44.6108 205.011 43.6846 207.131 43.5512C209.251 43.4177 211.356 43.9907 213.335 44.762C215.584 45.6383 217.814 46.8494 219.197 48.8267C220.88 51.2312 221.042 54.4639 220.201 57.2756C219.689 58.9859 217.941 61.0753 216.651 62.4497Z" fill="#2F2E41"/>
<path d="M289.65 179.187H35.0656C34.957 179.187 34.8528 179.144 34.7761 179.067C34.6993 178.99 34.6562 178.886 34.6562 178.777C34.6562 178.668 34.6993 178.564 34.7761 178.487C34.8528 178.41 34.957 178.367 35.0656 178.366H289.65C289.758 178.367 289.863 178.41 289.939 178.487C290.016 178.564 290.059 178.668 290.059 178.777C290.059 178.886 290.016 178.99 289.939 179.067C289.863 179.144 289.758 179.187 289.65 179.187Z" fill="#3F3D56"/>
<path d="M161.723 141.552H116.896C116.305 141.555 115.738 141.324 115.318 140.909C114.897 140.494 114.659 139.93 114.654 139.34V39.2811C114.659 38.6908 114.897 38.1263 115.318 37.7116C115.738 37.2969 116.305 37.0658 116.896 37.069H161.723C162.314 37.0658 162.881 37.2969 163.301 37.7116C163.722 38.1263 163.96 38.6908 163.965 39.2811V139.34C163.96 139.93 163.722 140.494 163.301 140.909C162.881 141.324 162.314 141.555 161.723 141.552Z" fill="white"/>
<path d="M163.965 69.4447H114.654V70.1344H163.965V69.4447Z" fill="#CCCCCC"/>
<path d="M164.138 108.793H114.828V109.483H164.138V108.793Z" fill="#CCCCCC"/>
<path d="M130.862 37.069H130.172V141.897H130.862V37.069Z" fill="#CCCCCC"/>
<path d="M148.104 37.069H147.414V141.897H148.104V37.069Z" fill="#CCCCCC"/>
</g>
<defs>
<clipPath id="clip0_39_2193">
<rect width="300" height="179.358" fill="white"/>
</clipPath>
</defs>
</svg>
