<svg width="64" height="64" viewBox="0 0 64 64" fill="none" xmlns="http://www.w3.org/2000/svg">
<path d="M7.5 27.79L36.5 56.79V46.21L7.5 17.21V27.79Z" fill="#BA9BC9"/>
<path d="M55.79 35.5L26.79 6.5H16.21L45.21 35.5H55.79Z" fill="#65C8D0"/>
<path d="M18.79 16.5H8.20996L37.21 45.5H47.79L18.79 16.5Z" fill="#65C8D0"/>
<path d="M19.35 15.65L44.5 40.79V36.21L15.5 7.20996V15.5H19C19.0656 15.4992 19.1306 15.5121 19.1909 15.5379C19.2512 15.5638 19.3054 15.6019 19.35 15.65V15.65Z" fill="#BA9BC9"/>
<path d="M45.5 41.79L49.35 45.65C49.3971 45.6954 49.4346 45.7497 49.4604 45.8098C49.4861 45.8699 49.4996 45.9346 49.5 46V47.5H56.5V36.5H45.5V41.79Z" fill="#838BC5"/>
<path d="M48.5 46.5H37.5V57.5H48.5V46.5Z" fill="#838BC5"/>
<path d="M57.71 35.29L27.71 5.29002C27.6166 5.19734 27.5058 5.12401 27.3839 5.07425C27.2621 5.02448 27.1316 4.99926 27 5.00002H15C14.7348 5.00002 14.4804 5.10537 14.2929 5.29291C14.1054 5.48045 14 5.7348 14 6.00002V15H7.00002C6.7348 15 6.48045 15.1054 6.29291 15.2929C6.10537 15.4804 6.00002 15.7348 6.00002 16V28C5.99926 28.1316 6.02448 28.2621 6.07425 28.3839C6.12401 28.5058 6.19734 28.6166 6.29002 28.71L36.29 58.71C36.3835 58.8027 36.4943 58.876 36.6161 58.9258C36.7379 58.9755 36.8684 59.0008 37 59H49C49.2652 59 49.5196 58.8947 49.7071 58.7071C49.8947 58.5196 50 58.2652 50 58V49H57C57.2652 49 57.5196 48.8947 57.7071 48.7071C57.8947 48.5196 58 48.2652 58 48V36C58.0008 35.8684 57.9755 35.7379 57.9258 35.6161C57.876 35.4943 57.8027 35.3835 57.71 35.29V35.29ZM54.59 35H45.41L17.41 7.00002H26.59L54.59 35ZM9.41002 17H18.59L46.59 45H37.41L9.41002 17ZM16 8.41002L44 36.41V39.59L19.71 15.29C19.6166 15.1973 19.5058 15.124 19.3839 15.0742C19.2621 15.0245 19.1316 14.9993 19 15H16V8.41002ZM8.00002 18.41L36 46.41V55.59L8.00002 27.59V18.41ZM48 57H38V47H48V57ZM56 47H50V46C50.0008 45.8684 49.9755 45.7379 49.9258 45.6161C49.876 45.4943 49.8027 45.3835 49.71 45.29L46 41.59V37H56V47Z" fill="#F4ECCE"/>
</svg>
