<svg width="200" height="141" viewBox="0 0 200 141" fill="none" xmlns="http://www.w3.org/2000/svg">
<g clip-path="url(#clip0_39_1693)">
<path d="M102.144 140.646C108.159 140.646 113.035 135.769 113.035 129.754C113.035 123.739 108.159 118.862 102.144 118.862C96.1284 118.862 91.252 123.739 91.252 129.754C91.252 135.769 96.1284 140.646 102.144 140.646Z" fill="#6C63FF"/>
<path d="M167.212 140.034C173.305 138.204 179.783 136.296 184.616 131.945C188.934 128.058 191.849 122.122 190.06 116.292C188.275 110.474 182.928 106.594 177.407 104.665C174.275 103.57 170.999 102.963 167.724 102.486C164.164 101.968 160.589 101.543 157.015 101.134C142.544 99.4789 128.018 98.4678 113.437 98.1007C106.243 97.9195 99.05 97.9239 91.8546 98.0284C85.4287 98.1217 78.6609 98.1193 72.6996 95.3882C68.0639 93.2643 63.8564 89.4003 62.5647 84.3227C61.0737 78.4614 63.8239 72.4924 67.7691 68.2474C69.8486 66.0099 72.2791 64.1266 74.7863 62.3949C77.5062 60.5163 80.321 58.7707 83.1968 57.1413C88.8608 53.9336 94.7823 51.2037 100.9 48.9799C103.918 47.8826 106.98 46.9358 110.07 46.0625C112.678 45.325 115.295 44.5864 117.816 43.5816C122.69 41.6392 127.325 38.3489 128.564 32.9547C129.739 27.8424 127.759 22.2925 124.287 18.4946C120.271 14.1007 114.215 12.1746 108.409 11.8629C101.891 11.5131 95.5228 13.1444 89.3963 15.2147C82.8621 17.4229 76.4686 19.9619 69.7963 21.7505C63.1798 23.5224 56.4352 24.7762 49.6239 25.5003C46.2895 25.8553 42.8544 26.2562 39.5002 25.9844C36.689 25.7566 33.8923 24.9299 31.8205 22.9348C30.0441 21.2242 28.9859 18.8731 29.3497 16.3921C29.4158 15.9415 30.1003 16.133 30.0346 16.5809C29.5918 19.6011 31.6447 22.384 34.1745 23.8096C37.0983 25.4572 40.6561 25.4594 43.9112 25.271C50.9693 24.8447 57.9796 23.8313 64.8694 22.2413C71.6395 20.695 78.1678 18.4845 84.6886 16.1232C90.8818 13.8805 97.2134 11.6917 103.83 11.2059C109.571 10.7844 115.61 11.6208 120.611 14.621C125.007 17.2577 128.239 21.655 129.269 26.7009C130.275 31.6317 128.881 36.5947 125.149 40.0356C121.284 43.5982 115.985 45.1213 111.047 46.5241C104.784 48.3034 98.655 50.3832 92.7224 53.0836C86.7091 55.8131 80.942 59.0554 75.485 62.7744C70.2176 66.374 65.0193 70.9031 63.3534 77.3247C62.5774 80.3159 62.7206 83.4885 64.0191 86.3139C65.1736 88.826 67.0751 90.9392 69.2901 92.5692C74.5752 96.4581 81.2362 97.2566 87.6201 97.336C94.79 97.4252 101.96 97.1832 109.133 97.301C123.749 97.5409 138.336 98.4306 152.893 99.9701C156.541 100.356 160.184 100.783 163.822 101.25C167.095 101.671 170.379 102.089 173.596 102.835C179.317 104.163 184.884 106.717 188.44 111.567C190.018 113.67 190.996 116.162 191.269 118.776C191.518 121.505 190.85 124.239 189.616 126.666C186.886 132.038 181.771 135.456 176.339 137.701C173.43 138.903 170.412 139.814 167.401 140.719C166.962 140.851 166.774 140.165 167.212 140.034L167.212 140.034Z" fill="#F2F2F2"/>
<path d="M29.8086 22.1387C32.9471 22.1387 35.4913 19.5945 35.4913 16.456C35.4913 13.3176 32.9471 10.7734 29.8086 10.7734C26.6702 10.7734 24.126 13.3176 24.126 16.456C24.126 19.5945 26.6702 22.1387 29.8086 22.1387Z" fill="#F2F2F2"/>
<path d="M69.2325 32.9121C72.3709 32.9121 74.9151 30.3678 74.9151 27.2294C74.9151 24.0909 72.3709 21.5467 69.2325 21.5467C66.094 21.5467 63.5498 24.0909 63.5498 27.2294C63.5498 30.3678 66.094 32.9121 69.2325 32.9121Z" fill="#F2F2F2"/>
<path d="M102.617 11.3653C105.756 11.3653 108.3 8.8211 108.3 5.68266C108.3 2.54421 105.756 0 102.617 0C99.4788 0 96.9346 2.54421 96.9346 5.68266C96.9346 8.8211 99.4788 11.3653 102.617 11.3653Z" fill="#F2F2F2"/>
<path d="M123.454 35.5166C126.593 35.5166 129.137 32.9724 129.137 29.8339C129.137 26.6955 126.593 24.1513 123.454 24.1513C120.316 24.1513 117.771 26.6955 117.771 29.8339C117.771 32.9724 120.316 35.5166 123.454 35.5166Z" fill="#F2F2F2"/>
<path d="M95.2774 63.4563C98.4158 63.4563 100.96 60.9121 100.96 57.7737C100.96 54.6352 98.4158 52.091 95.2774 52.091C92.1389 52.091 89.5947 54.6352 89.5947 57.7737C89.5947 60.9121 92.1389 63.4563 95.2774 63.4563Z" fill="#F2F2F2"/>
<path d="M59.5245 76.9526C62.6629 76.9526 65.2071 74.4084 65.2071 71.27C65.2071 68.1315 62.6629 65.5873 59.5245 65.5873C56.386 65.5873 53.8418 68.1315 53.8418 71.27C53.8418 74.4084 56.386 76.9526 59.5245 76.9526Z" fill="#F2F2F2"/>
<path d="M97.4082 98.0258C100.547 98.0258 103.091 95.4816 103.091 92.3432C103.091 89.2047 100.547 86.6605 97.4082 86.6605C94.2698 86.6605 91.7256 89.2047 91.7256 92.3432C91.7256 95.4816 94.2698 98.0258 97.4082 98.0258Z" fill="#F2F2F2"/>
<path d="M138.134 109.865C141.272 109.865 143.816 107.32 143.816 104.182C143.816 101.044 141.272 98.4994 138.134 98.4994C134.995 98.4994 132.451 101.044 132.451 104.182C132.451 107.32 134.995 109.865 138.134 109.865Z" fill="#F2F2F2"/>
<path d="M185.727 107.26C188.865 107.26 191.409 104.716 191.409 101.577C191.409 98.439 188.865 95.8948 185.727 95.8948C182.588 95.8948 180.044 98.439 180.044 101.577C180.044 104.716 182.588 107.26 185.727 107.26Z" fill="#F2F2F2"/>
<path d="M100.978 16.1017C83.9551 16.2219 70.0174 30.0549 69.7756 47.076C69.7734 47.2332 69.7723 48.3382 69.7725 49.7834C69.7726 51.9024 70.6144 53.9346 72.1127 55.4331C73.6111 56.9315 75.6432 57.7734 77.7623 57.7737H77.7623C78.8127 57.7734 79.8528 57.5662 80.8231 57.1639C81.7935 56.7615 82.675 56.1719 83.4173 55.4287C84.1597 54.6856 84.7484 53.8034 85.1497 52.8326C85.551 51.8619 85.7571 50.8216 85.7561 49.7711C85.7553 48.788 85.7548 48.1076 85.7548 48.0658C85.7543 45.4352 86.4385 42.8498 87.7403 40.5639C89.042 38.2779 90.9164 36.3702 93.179 35.0284C95.4417 33.6866 98.0146 32.9569 100.645 32.9111C103.275 32.8653 105.872 33.505 108.18 34.7672C110.488 36.0294 112.427 37.8706 113.808 40.1099C115.189 42.3491 115.962 44.9091 116.053 47.5381C116.144 50.1671 115.55 52.7746 114.327 55.1039C113.105 57.4333 111.297 59.4044 109.082 60.8232L109.085 60.8266C109.085 60.8266 97.713 68.1476 94.2459 78.1908L94.2489 78.1915C93.6392 80.2489 93.3303 82.3837 93.3317 84.5295C93.3317 85.4116 93.3836 93.1296 93.4839 99.3938C93.5189 101.555 94.4023 103.616 95.9434 105.132C97.4844 106.648 99.5597 107.497 101.721 107.497H101.721C102.808 107.497 103.883 107.282 104.886 106.865C105.889 106.448 106.799 105.836 107.565 105.066C108.331 104.295 108.936 103.381 109.347 102.376C109.758 101.37 109.966 100.293 109.96 99.2072C109.925 93.4703 109.906 86.7902 109.906 86.3053C109.906 80.1385 115.855 73.9942 120.742 69.9873C126.369 65.3732 130.419 59.0853 132.045 51.9924C132.405 50.5321 132.603 49.0367 132.637 47.533C132.637 43.3862 131.816 39.2804 130.222 35.452C128.629 31.6237 126.293 28.1486 123.35 25.227C120.407 22.3053 116.915 19.9949 113.076 18.4287C109.236 16.8626 105.124 16.0717 100.978 16.1017Z" fill="#6C63FF"/>
<path d="M199.718 140.944H0.282088C0.207458 140.944 0.13596 140.914 0.0832648 140.862C0.0305696 140.809 0.000976562 140.737 0.000976562 140.663C0.000976562 140.588 0.0305696 140.516 0.0832648 140.463C0.13596 140.411 0.207458 140.381 0.282088 140.381H199.718C199.793 140.381 199.865 140.41 199.918 140.463C199.97 140.516 200 140.588 200 140.663C200 140.737 199.97 140.809 199.918 140.862C199.865 140.915 199.793 140.944 199.718 140.944Z" fill="#3F3D56"/>
<path d="M148.803 64.6393C152.726 64.6393 155.906 61.459 155.906 57.5359C155.906 53.6129 152.726 50.4326 148.803 50.4326C144.879 50.4326 141.699 53.6129 141.699 57.5359C141.699 61.459 144.879 64.6393 148.803 64.6393Z" fill="#2F2E41"/>
<path d="M135.676 137.835H132.774L131.393 126.638H135.677L135.676 137.835Z" fill="#A0616A"/>
<path d="M130.7 137.005H136.298V140.53H127.175C127.175 140.067 127.266 139.609 127.443 139.181C127.62 138.754 127.88 138.365 128.207 138.038C128.535 137.711 128.923 137.451 129.351 137.274C129.778 137.097 130.237 137.005 130.7 137.005Z" fill="#2F2E41"/>
<path d="M158.171 137.835H155.268L153.887 126.638H158.171L158.171 137.835Z" fill="#A0616A"/>
<path d="M153.194 137.005H158.792V140.53H149.669C149.669 140.067 149.76 139.609 149.937 139.181C150.114 138.754 150.374 138.365 150.701 138.038C151.029 137.711 151.417 137.451 151.845 137.274C152.273 137.097 152.731 137.005 153.194 137.005Z" fill="#2F2E41"/>
<path d="M147.723 64.6807C150.935 64.6807 153.538 62.0771 153.538 58.8652C153.538 55.6534 150.935 53.0497 147.723 53.0497C144.511 53.0497 141.907 55.6534 141.907 58.8652C141.907 62.0771 144.511 64.6807 147.723 64.6807Z" fill="#A0616A"/>
<path d="M151.189 83.4417L153.791 77.4631C154.423 76.0606 154.604 74.4965 154.31 72.9867C154.015 71.4768 153.259 70.0957 152.146 69.0338C151.917 68.8078 151.674 68.5967 151.419 68.4016C150.135 67.3972 148.553 66.8498 146.922 66.846C145.826 66.8503 144.744 67.0909 143.75 67.5516C143.664 67.5895 143.582 67.6297 143.496 67.67C143.333 67.7481 143.172 67.8334 143.016 67.921C141.996 68.5063 141.129 69.3229 140.483 70.3051C139.837 71.2872 139.431 72.4074 139.298 73.5752L138.15 83.1979C137.861 83.9532 127.556 111.23 131.16 132.054C131.199 132.277 131.307 132.481 131.47 132.638C131.632 132.794 131.841 132.894 132.065 132.923L135.718 133.421C135.985 133.457 136.256 133.391 136.476 133.236C136.696 133.081 136.849 132.848 136.904 132.585L143.035 103.364C143.073 103.183 143.171 103.019 143.313 102.9C143.455 102.78 143.633 102.712 143.818 102.706C144.004 102.7 144.186 102.756 144.336 102.865C144.485 102.975 144.594 103.131 144.645 103.31L153.306 134.039C153.368 134.262 153.501 134.459 153.685 134.599C153.87 134.739 154.095 134.815 154.326 134.815C154.396 134.815 154.464 134.809 154.532 134.796L158.996 133.937C159.255 133.888 159.487 133.745 159.646 133.534C159.805 133.323 159.88 133.061 159.855 132.798C159.199 125.484 155.714 88.8474 151.189 83.4417Z" fill="#2F2E41"/>
<path d="M125.123 63.7049C125.082 64.0507 125.118 64.401 125.228 64.7314C125.337 65.0617 125.518 65.364 125.757 65.6169C125.997 65.8698 126.288 66.0672 126.612 66.1952C126.936 66.3232 127.284 66.3786 127.631 66.3576L130.882 74.1695L133.341 70.5244L129.877 63.665C129.803 63.0836 129.518 62.5496 129.077 62.1641C128.635 61.7786 128.068 61.5684 127.482 61.5733C126.896 61.5782 126.332 61.7979 125.897 62.1908C125.462 62.5837 125.187 63.1224 125.122 63.7049L125.123 63.7049Z" fill="#A0616A"/>
<path d="M147.4 91.3076C147.746 91.2663 148.078 91.1497 148.374 90.966C148.67 90.7824 148.922 90.5361 149.112 90.2446C149.302 89.9531 149.426 89.6234 149.475 89.2788C149.524 88.9342 149.497 88.583 149.396 88.25L156.235 83.2686L152.117 81.7267L146.254 86.6935C145.706 86.9009 145.253 87.3021 144.981 87.8212C144.709 88.3402 144.636 88.9411 144.778 89.5098C144.919 90.0786 145.264 90.5757 145.747 90.907C146.231 91.2384 146.819 91.3809 147.4 91.3076Z" fill="#A0616A"/>
<path d="M136.251 79.3775C135.989 79.3772 135.728 79.3514 135.471 79.3005C134.848 79.1821 134.265 78.9125 133.772 78.5154C133.278 78.1183 132.89 77.606 132.642 77.0236L128.087 71.4704C127.991 71.353 127.921 71.2164 127.882 71.0697C127.843 70.923 127.835 70.7696 127.86 70.6198C127.885 70.4701 127.942 70.3273 128.026 70.2012C128.111 70.0751 128.221 69.9685 128.35 69.8886L131.591 67.8829C131.71 67.8088 131.843 67.7592 131.982 67.7369C132.121 67.7145 132.263 67.7199 132.4 67.7527C132.537 67.7855 132.666 67.8451 132.779 67.928C132.893 68.0109 132.989 68.1155 133.062 68.2358L136.272 73.524L142.419 68.981C142.909 68.7244 143.474 68.6524 144.012 68.7783C144.55 68.9041 145.025 69.2193 145.35 69.6663C145.675 70.1134 145.828 70.6624 145.782 71.2131C145.735 71.7637 145.492 72.2793 145.097 72.6656L138.962 78.2623C138.241 78.9769 137.267 79.3778 136.251 79.3775Z" fill="#2F2E41"/>
<path d="M152.861 87.7292C152.853 87.7292 152.845 87.7292 152.836 87.729C152.687 87.7253 152.54 87.6903 152.405 87.6263C152.27 87.5623 152.15 87.4706 152.052 87.3572L149.172 83.9965C149.073 83.882 149.001 83.7481 148.958 83.6034C148.916 83.4588 148.904 83.3068 148.925 83.1575C148.946 83.0081 148.998 82.8649 149.078 82.7371C149.158 82.6094 149.264 82.5001 149.39 82.4165L154.784 78.8204L149.897 72.9454C149.613 72.4715 149.508 71.9111 149.603 71.3667C149.698 70.8223 149.985 70.3301 150.413 69.9801C150.841 69.6301 151.38 69.4457 151.933 69.4605C152.485 69.4753 153.014 69.6884 153.422 70.0608L159.361 75.8649C159.829 76.2919 160.185 76.826 160.401 77.4213C160.617 78.0165 160.685 78.6552 160.599 79.2826C160.513 79.9099 160.277 80.507 159.91 81.0228C159.542 81.5386 159.056 81.9576 158.491 82.2438L153.637 87.3946C153.537 87.5002 153.417 87.5843 153.283 87.6419C153.15 87.6994 153.006 87.7291 152.861 87.7292Z" fill="#2F2E41"/>
<path d="M146.244 75.346C146.198 75.3459 146.152 75.343 146.106 75.3372C145.905 75.3128 145.716 75.2314 145.56 75.1026C145.405 74.9738 145.289 74.803 145.227 74.6105L143.063 67.9738C143.008 67.806 143.017 67.6243 143.086 67.4622C143.156 67.3 143.281 67.1685 143.44 67.0919L143.51 67.0587C143.574 67.0285 143.637 66.9985 143.702 66.9698C144.711 66.5017 145.81 66.2575 146.922 66.2541C148.367 66.2567 149.779 66.6811 150.986 67.4751C151.148 67.5827 151.261 67.7496 151.301 67.9398C151.34 68.13 151.304 68.3283 151.199 68.4919L147.139 74.8536C147.043 75.0046 146.911 75.129 146.755 75.2151C146.599 75.3013 146.423 75.3463 146.244 75.346Z" fill="#E6E6E6"/>
<path d="M154.402 54.3648C155.686 54.3648 156.727 53.3241 156.727 52.0404C156.727 50.7567 155.686 49.716 154.402 49.716C153.119 49.716 152.078 50.7567 152.078 52.0404C152.078 53.3241 153.119 54.3648 154.402 54.3648Z" fill="#2F2E41"/>
<path d="M146.435 49.4855C144.802 49.4855 143.236 50.1341 142.081 51.2886C140.927 52.4431 140.278 54.009 140.278 55.6417V58.2463H143.482L145.014 55.6417L145.474 58.2463H155.195L152.591 55.6417C152.591 54.009 151.942 52.4431 150.788 51.2886C149.633 50.1341 148.067 49.4855 146.435 49.4855Z" fill="#2F2E41"/>
<path d="M155.598 50.4483C155.855 49.6445 156.387 48.9571 157.101 48.5069C157.814 48.0568 158.664 47.8726 159.5 47.9868C160.981 48.2345 162.152 49.4251 162.85 50.755C163.548 52.0849 163.87 53.5732 164.339 54.9999C164.809 56.4266 165.474 57.8611 166.658 58.7846C167.842 59.7081 169.66 59.9586 170.823 59.0086C170.69 59.9987 170.249 60.922 169.563 61.6478C168.877 62.3737 167.979 62.8654 166.998 63.0534C166.017 63.2414 165.002 63.1161 164.096 62.6954C163.19 62.2747 162.439 61.5798 161.949 60.7089C161.336 59.617 161.177 58.3372 160.995 57.0978C160.813 55.8585 160.577 54.5762 159.844 53.5603C159.111 52.5444 157.739 51.8808 156.575 52.3436L155.598 50.4483Z" fill="#2F2E41"/>
<path d="M80.0178 53.9943C77.8987 53.9941 75.8666 53.1522 74.3682 51.6537C72.8699 50.1553 72.0281 48.1231 72.0279 46.004C72.0278 44.5588 72.0289 43.4538 72.0311 43.2967C72.0984 38.3465 73.3451 33.4836 75.6677 29.1116C71.8517 34.3356 69.7535 40.6164 69.6633 47.0851C69.6611 47.2423 69.66 48.3472 69.6602 49.7925C69.6603 51.9115 70.5021 53.9437 72.0005 55.4422C73.4988 56.9406 75.531 57.7825 77.65 57.7828C79.3913 57.7821 81.0847 57.2131 82.4731 56.1622C83.8615 55.1113 84.869 53.6359 85.3424 51.9603C83.8794 53.2722 81.9829 53.9967 80.0178 53.9943Z" fill="#3F3D56"/>
<path d="M101.519 32.9379C103.969 33.0549 106.353 33.7647 108.468 35.0064C110.583 36.2481 112.365 37.9845 113.662 40.0666C114.958 42.1487 115.729 44.5142 115.909 46.9601C116.09 49.406 115.674 51.8591 114.698 54.1089C116.11 52.4502 117.148 50.5064 117.741 48.4102C118.334 46.3139 118.468 44.1144 118.134 41.9616C117.8 39.8088 117.006 37.7534 115.805 35.9354C114.605 34.1174 113.027 32.5797 111.178 31.427C109.329 30.2743 107.254 29.5337 105.093 29.2559C102.933 28.978 100.737 29.1692 98.6572 29.8167C96.577 30.4641 94.661 31.5524 93.0396 33.0075C91.4182 34.4626 90.1296 36.2501 89.2617 38.2483C90.7618 36.4837 92.6471 35.0872 94.7722 34.1665C96.8974 33.2457 99.2056 32.8254 101.519 32.9379Z" fill="#3F3D56"/>
<path d="M103.977 103.718C101.815 103.718 99.7402 102.869 98.1992 101.353C96.6581 99.8369 95.7747 97.7759 95.7397 95.6145C95.6394 89.3502 95.5875 81.6322 95.5875 80.7502C95.5861 78.6043 95.895 76.4695 96.5047 74.4121L96.5018 74.4114C96.8618 73.3787 97.2966 72.3736 97.8027 71.4041C96.249 73.4746 95.0126 75.7649 94.134 78.1998L94.1369 78.2006C93.5273 80.258 93.2183 82.3927 93.2197 84.5386C93.2197 85.4207 93.2716 93.1387 93.3719 99.4029C93.407 101.564 94.2903 103.625 95.8314 105.141C97.3724 106.657 99.4477 107.506 101.609 107.506C103.392 107.506 105.126 106.927 106.552 105.858C107.978 104.789 109.019 103.286 109.518 101.575C108.004 102.956 106.027 103.72 103.977 103.718Z" fill="#3F3D56"/>
<path d="M29.9616 137.943L32.8643 137.943L34.2454 126.746L29.9609 126.746L29.9616 137.943Z" fill="#FFB8B8"/>
<path d="M38.4629 140.638L29.3397 140.638L29.3395 137.114L34.9379 137.113C35.8727 137.113 36.7693 137.485 37.4304 138.146C38.0914 138.807 38.4628 139.703 38.4629 140.638L38.4629 140.638Z" fill="#2F2E41"/>
<path d="M19.5437 137.943L22.4463 137.943L23.8275 126.746L19.543 126.746L19.5437 137.943Z" fill="#FFB8B8"/>
<path d="M28.0449 140.638L18.9217 140.638L18.9216 137.114L24.5199 137.113C25.4547 137.113 26.3513 137.485 27.0124 138.146C27.6735 138.807 28.0449 139.703 28.0449 140.638L28.0449 140.638Z" fill="#2F2E41"/>
<path d="M22.0802 134.499L19.2448 134.35C19.0986 134.343 18.9553 134.306 18.8234 134.242C18.6914 134.179 18.5734 134.09 18.4761 133.981C18.3788 133.871 18.3041 133.744 18.2565 133.605C18.2089 133.467 18.1892 133.32 18.1986 133.174L21.5875 95.653L37.1937 99.8642L38.6973 99.454L33.9953 132.67C33.9553 132.92 33.8312 133.149 33.6436 133.319C33.4559 133.489 33.216 133.589 32.9634 133.604L29.9069 133.747C29.754 133.755 29.6011 133.732 29.4577 133.678C29.3144 133.625 29.1837 133.542 29.0739 133.435C28.9642 133.328 28.8778 133.2 28.8202 133.058C28.7626 132.916 28.735 132.764 28.7392 132.611L29.293 112.675C29.2956 112.583 29.2636 112.493 29.2032 112.424C29.1429 112.354 29.0586 112.309 28.967 112.299C28.8754 112.288 28.7831 112.312 28.7084 112.366C28.6336 112.42 28.5817 112.5 28.563 112.59L23.222 133.619C23.1716 133.868 23.0362 134.093 22.8389 134.254C22.6417 134.414 22.3947 134.502 22.1401 134.501C22.1203 134.501 22.1003 134.501 22.0802 134.499Z" fill="#2F2E41"/>
<path d="M30.4835 64.9527C33.6953 64.9527 36.299 62.349 36.299 59.1372C36.299 55.9254 33.6953 53.3217 30.4835 53.3217C27.2717 53.3217 24.668 55.9254 24.668 59.1372C24.668 62.349 27.2717 64.9527 30.4835 64.9527Z" fill="#FFB8B8"/>
<path d="M20.8012 76.2228L21.4406 90.0192L21.6718 95.0386C21.681 95.2571 21.7552 95.4679 21.8849 95.644C22.0145 95.8201 22.1938 95.9535 22.3997 96.0272L37.3963 101.46C37.5174 101.505 37.6458 101.527 37.775 101.526C37.9227 101.527 38.069 101.498 38.2053 101.441C38.3415 101.384 38.4648 101.3 38.5679 101.194C38.671 101.088 38.7517 100.962 38.8052 100.825C38.8587 100.687 38.8838 100.54 38.8792 100.392L38.2644 75.5859C38.224 73.5506 37.4749 71.5933 36.146 70.0512C34.8172 68.5091 32.992 67.479 30.985 67.1383C30.84 67.1162 30.6924 67.0941 30.5448 67.0744C29.3003 66.9199 28.0371 67.04 26.8441 67.4262C25.651 67.8124 24.5571 68.4554 23.6392 69.3099C22.6888 70.184 21.942 71.2563 21.4516 72.4508C20.9612 73.6453 20.7392 74.933 20.8012 76.2228L20.8012 76.2228Z" fill="#CCCCCC"/>
<path d="M44.5598 98.7068C44.2051 98.5967 43.8811 98.4053 43.6135 98.1477C43.346 97.8901 43.1423 97.5736 43.0188 97.2234C42.8953 96.8731 42.8554 96.4989 42.9022 96.1304C42.9491 95.762 43.0814 95.4097 43.2886 95.1015L38.2031 88.3391L42.5916 88.0675L46.7481 94.5308C47.1931 94.8748 47.5027 95.3646 47.6227 95.9141C47.7427 96.4636 47.6654 97.0378 47.4043 97.536C47.1432 98.0342 46.7151 98.4246 46.195 98.6387C45.6749 98.8527 45.096 98.8769 44.5598 98.7068H44.5598Z" fill="#FFB8B8"/>
<path d="M40.9845 93.8777C40.8497 93.823 40.7272 93.7422 40.6239 93.6398C40.5206 93.5375 40.4387 93.4156 40.3828 93.2814L32.7211 75.0272C32.5708 74.6698 32.4923 74.2863 32.4903 73.8986C32.4882 73.5108 32.5626 73.1265 32.7092 72.7675C32.8557 72.4086 33.0716 72.082 33.3444 71.8065C33.6172 71.531 33.9417 71.312 34.2992 71.1619C34.6567 71.0119 35.0403 70.9337 35.428 70.932C35.8158 70.9302 36.2 71.0049 36.5589 71.1518C36.9177 71.2986 37.2441 71.5147 37.5194 71.7878C37.7947 72.0608 38.0135 72.3854 38.1633 72.743L45.825 90.9975C45.9382 91.2681 45.9395 91.5726 45.8285 91.8442C45.7175 92.1158 45.5033 92.3323 45.2329 92.4461L41.8315 93.8736C41.6976 93.9303 41.5538 93.9599 41.4084 93.9606C41.263 93.9613 41.1189 93.9331 40.9844 93.8777L40.9845 93.8777Z" fill="#CCCCCC"/>
<path d="M28.613 93.2338L35.9719 79.1435C36.1138 78.8725 36.3574 78.6689 36.6493 78.5773C36.9411 78.4857 37.2574 78.5136 37.5287 78.6549L48.2101 84.2334C48.4811 84.3753 48.6847 84.6189 48.7763 84.9108C48.8679 85.2027 48.84 85.5189 48.6987 85.7902L41.3398 99.8806C41.1979 100.152 40.9543 100.355 40.6624 100.447C40.3706 100.538 40.0543 100.51 39.783 100.369L29.1016 94.7906C28.8306 94.6487 28.627 94.4051 28.5354 94.1133C28.4438 93.8214 28.4717 93.5051 28.613 93.2338Z" fill="#3F3D56"/>
<path d="M33.5484 86.7963C33.4176 86.4487 33.2074 86.1366 32.9345 85.8847C32.6616 85.6328 32.3335 85.4482 31.9766 85.3456C31.6197 85.243 31.2437 85.2253 30.8787 85.2938C30.5137 85.3623 30.1698 85.5152 29.8744 85.7402L22.8235 81.0629L22.8115 85.4598L29.509 89.2274C29.8787 89.6513 30.3858 89.9314 30.9415 90.0188C31.4971 90.1061 32.0658 89.995 32.5477 89.705C33.0296 89.415 33.394 88.9645 33.577 88.4327C33.76 87.9008 33.7499 87.3215 33.5484 86.7963Z" fill="#FFB8B8"/>
<path d="M24.6342 87.7851L18.8719 83.2206C18.2485 83.0113 17.6852 82.6538 17.2304 82.1789C16.7756 81.7039 16.4428 81.1257 16.2606 80.4939C16.0784 79.862 16.0523 79.1954 16.1845 78.5513C16.3167 77.9071 16.6032 77.3046 17.0194 76.7956L22.2515 69.9386C22.6151 69.4943 23.1265 69.1957 23.6921 69.0974C24.2577 68.999 24.8398 69.1075 25.332 69.4031C25.8242 69.6986 26.1937 70.1613 26.3728 70.7068C26.5519 71.2523 26.5287 71.844 26.3074 72.3737L22.1677 79.1456L28.2514 82.0311C28.3929 82.0982 28.5185 82.1946 28.62 82.3138C28.7215 82.4331 28.7965 82.5725 28.8401 82.7229C28.8837 82.8732 28.8949 83.0312 28.8729 83.1862C28.851 83.3412 28.7963 83.4898 28.7127 83.6222L26.2569 87.5087C26.1739 87.6398 26.0642 87.7521 25.9351 87.8382C25.8059 87.9243 25.6601 87.9823 25.5071 88.0085C25.501 88.0096 25.4949 88.0105 25.4888 88.0114C25.3385 88.0341 25.185 88.0258 25.0381 87.9868C24.8911 87.9479 24.7536 87.8793 24.6342 87.7851Z" fill="#CCCCCC"/>
<path d="M26.0886 63.0314C26.0637 62.9584 26.0558 62.8806 26.0655 62.8041C26.0752 62.7276 26.1023 62.6543 26.1448 62.5899C26.1872 62.5254 26.2438 62.4716 26.3103 62.4324C26.3767 62.3932 26.4513 62.3698 26.5282 62.3639C26.6857 62.3725 26.8398 62.4129 26.9813 62.4826C27.1227 62.5524 27.2486 62.6502 27.3512 62.7699C27.5617 63.0126 27.8067 63.223 28.0784 63.3944C28.3597 63.5362 28.7413 63.516 28.9016 63.2456C29.0523 62.9917 28.9491 62.6518 28.8579 62.3569C28.6259 61.6066 28.4961 60.8285 28.472 60.0436C28.4457 59.1674 28.5693 58.253 29.0544 57.5697C29.6804 56.6877 30.7998 56.3529 31.8591 56.3772C32.9184 56.4015 33.9606 56.7285 35.0099 56.9352C35.3722 57.0066 35.798 57.0431 36.0403 56.7623C36.2979 56.4638 36.2033 55.9806 36.0937 55.5775C35.8093 54.5316 35.5077 53.4502 34.847 52.6054C34.1327 51.7277 33.1122 51.1532 31.9913 50.9977C30.9151 50.8644 29.8226 50.9884 28.8037 51.3596C27.1436 51.8828 25.6829 52.9004 24.6168 54.2763C23.5178 55.7396 23.043 57.5784 23.296 59.3908C23.5433 60.9693 24.3797 62.3954 25.6368 63.3816L26.0886 63.0314Z" fill="#2F2E41"/>
<path d="M99.7441 137.989C98.1968 137.315 96.8274 136.291 95.7438 134.997C94.6602 133.703 93.8921 132.175 93.5002 130.534C93.1082 128.893 93.1031 127.182 93.4853 125.539C93.8674 123.895 94.6264 122.362 95.7022 121.062C94.4548 121.973 93.4154 123.139 92.653 124.482C91.8905 125.825 91.4225 127.315 91.2799 128.853C91.1373 130.391 91.3235 131.941 91.8259 133.402C92.3284 134.862 93.1358 136.199 94.1945 137.323C95.2531 138.448 96.5388 139.335 97.9663 139.924C99.3938 140.514 100.93 140.793 102.474 140.744C104.018 140.694 105.533 140.317 106.92 139.637C108.307 138.957 109.533 137.99 110.517 136.799C108.982 137.921 107.179 138.622 105.289 138.831C103.399 139.039 101.487 138.749 99.7441 137.989Z" fill="#3F3D56"/>
</g>
<defs>
<clipPath id="clip0_39_1693">
<rect width="200" height="140.944" fill="white"/>
</clipPath>
</defs>
</svg>
