<svg width="150" height="150" viewBox="0 0 150 150" fill="none" xmlns="http://www.w3.org/2000/svg">
<path d="M51.5625 51.5625C54.1513 51.5625 56.25 53.6612 56.25 56.25V112.5C56.25 115.089 54.1513 117.188 51.5625 117.188C48.9737 117.188 46.875 115.089 46.875 112.5V56.25C46.875 53.6612 48.9737 51.5625 51.5625 51.5625Z" fill="#CC0000"/>
<path d="M75 51.5625C77.5888 51.5625 79.6875 53.6612 79.6875 56.25V112.5C79.6875 115.089 77.5888 117.188 75 117.188C72.4112 117.188 70.3125 115.089 70.3125 112.5V56.25C70.3125 53.6612 72.4112 51.5625 75 51.5625Z" fill="#CC0000"/>
<path d="M103.125 56.25C103.125 53.6612 101.026 51.5625 98.4375 51.5625C95.8487 51.5625 93.75 53.6612 93.75 56.25V112.5C93.75 115.089 95.8487 117.188 98.4375 117.188C101.026 117.188 103.125 115.089 103.125 112.5V56.25Z" fill="#CC0000"/>
<path fill-rule="evenodd" clip-rule="evenodd" d="M135.938 28.125C135.938 33.3027 131.74 37.5 126.562 37.5H121.875V121.875C121.875 132.23 113.48 140.625 103.125 140.625H46.875C36.5197 140.625 28.125 132.23 28.125 121.875V37.5H23.4375C18.2598 37.5 14.0625 33.3027 14.0625 28.125V18.75C14.0625 13.5723 18.2598 9.375 23.4375 9.375H56.25C56.25 4.19733 60.4473 0 65.625 0H84.375C89.5527 0 93.75 4.19733 93.75 9.375H126.562C131.74 9.375 135.938 13.5723 135.938 18.75V28.125ZM38.6066 37.5L37.5 38.0533V121.875C37.5 127.053 41.6973 131.25 46.875 131.25H103.125C108.303 131.25 112.5 127.053 112.5 121.875V38.0533L111.393 37.5H38.6066ZM23.4375 28.125V18.75H126.562V28.125H23.4375Z" fill="#CC0000"/>
</svg>
