<svg width="24" height="24" viewBox="0 0 24 24" fill="none" xmlns="http://www.w3.org/2000/svg">
<g clip-path="url(#clip0_217_3719)">
<path d="M23.8125 9.84542C23.7562 9.51334 23.4418 9.30352 23.1137 9.37871L21.0592 9.84859C20.825 8.85868 20.4326 7.93014 19.9105 7.0907L21.6928 5.96424C21.9773 5.78479 22.0498 5.41314 21.8544 5.13918C21.8544 5.13918 21.548 4.5771 20.4856 3.51486C19.4234 2.45239 18.8292 2.12394 18.8292 2.12394C18.5546 1.92911 18.1839 2.00307 18.005 2.28817L16.8841 4.07392C16.043 3.55466 15.1133 3.16508 14.1225 2.93417L14.586 0.878619C14.6601 0.550325 14.4491 0.236328 14.1171 0.18084C14.1171 0.18084 13.503 0 12.0004 0C10.4979 0 9.84558 0.18795 9.84558 0.18795C9.51381 0.244288 9.30368 0.558672 9.37888 0.886811L9.84891 2.94143C8.85908 3.17552 7.93061 3.5678 7.0911 4.08992L5.96471 2.30756C5.78496 2.02317 5.41362 1.95044 5.13965 2.14573C5.13965 2.14573 4.5775 2.45231 3.51503 3.51463C2.45271 4.57703 2.12419 5.17125 2.12419 5.17125C1.92936 5.44568 2.00324 5.81671 2.28833 5.99554L4.07416 7.11628C3.55491 7.9575 3.16541 8.88712 2.93441 9.87788L0.878786 9.41434C0.550569 9.34038 0.236572 9.55136 0.181084 9.88329C0.181084 9.88329 0.000244141 10.4974 0.000244141 12.0001C0.000244141 13.5024 0.188117 14.1548 0.188117 14.1548C0.244455 14.4866 0.558916 14.6967 0.887055 14.6215L2.9416 14.1515C3.17568 15.1414 3.56804 16.0698 4.09016 16.9094L2.30781 18.0357C2.02333 18.2154 1.95069 18.5868 2.14613 18.8609C2.14613 18.8609 2.45248 19.4228 3.51495 20.4854C4.57719 21.5476 5.17141 21.8761 5.17141 21.8761C5.44592 22.071 5.8168 21.9971 5.9957 21.712L7.11653 19.9262C7.95759 20.4456 8.88729 20.8351 9.87804 21.0661L9.41458 23.1215C9.34047 23.4498 9.5516 23.7638 9.88361 23.8192C9.88361 23.8192 10.4976 24.0002 12.0003 24C13.5026 24 14.155 23.8122 14.155 23.8122C14.4868 23.7559 14.6969 23.4415 14.6217 23.1133L14.1517 21.0589C15.1416 20.8248 16.0701 20.4323 16.9095 19.9104L18.0359 21.6924C18.2155 21.9771 18.587 22.0496 18.861 21.8541C18.861 21.8541 19.423 21.5478 20.4855 20.4854C21.5477 19.4231 21.8762 18.8289 21.8762 18.8289C22.0711 18.5543 21.9973 18.1838 21.7122 18.0048L19.9264 16.8839C20.4457 16.0428 20.8352 15.113 21.0662 14.1223L23.1218 14.5857C23.4499 14.6599 23.7639 14.4486 23.8193 14.1167C23.8193 14.1167 24.0002 13.5027 24.0002 12.0002C24.0004 10.4978 23.8125 9.84542 23.8125 9.84542ZM12.0004 14.7806C10.4647 14.7806 9.21983 13.5359 9.21983 12.0001C9.21983 10.4644 10.4646 9.21959 12.0004 9.21959C13.5361 9.21959 14.781 10.4644 14.781 12.0001C14.781 13.5358 13.5361 14.7806 12.0004 14.7806Z" fill="#A4A9AD"/>
<path d="M12.0003 7.42798C9.47519 7.42798 7.42822 9.47502 7.42822 12.0001C7.42822 14.5252 9.47519 16.5723 12.0003 16.5723C14.5254 16.5723 16.5725 14.5252 16.5725 12.0001C16.5725 9.4751 14.5254 7.42798 12.0003 7.42798ZM12.0003 14.7807C10.4646 14.7807 9.21977 13.5359 9.21977 12.0001C9.21977 10.4645 10.4646 9.21961 12.0003 9.21961C13.5361 9.21961 14.7809 10.4644 14.7809 12.0001C14.7809 13.5358 13.5361 14.7807 12.0003 14.7807Z" fill="#333E48"/>
</g>
<defs>
<clipPath id="clip0_217_3719">
<rect width="24" height="24" fill="white"/>
</clipPath>
</defs>
</svg>
