<svg width="40" height="40" viewBox="0 0 40 40" fill="none" xmlns="http://www.w3.org/2000/svg">
<path d="M23.5133 5.13431H23.0133V5.15924L23.0158 5.18406L23.5133 5.13431ZM23.5133 5.13429H24.0133V5.10935L24.0109 5.08453L23.5133 5.13429ZM23.6566 6.56652L23.1591 6.61627V6.61627L23.6566 6.56652ZM24.4544 9.24581L24.6458 8.78387H24.6458L24.4544 9.24581ZM26.9131 7.91543L26.5965 7.52845L26.9131 7.91543ZM28.0271 7.004L28.3437 7.39098L28.0271 7.004ZM29.4106 6.20612L29.4355 5.70674L29.4106 6.20612ZM30.7078 7.1377L30.3542 7.49125L30.7078 7.1377ZM32.8621 9.29205L32.5086 9.64561V9.64561L32.8621 9.29205ZM32.9958 11.9727L32.6089 11.6561L32.9958 11.9727ZM32.0844 13.0868L31.6974 12.7701L32.0844 13.0868ZM33.4333 16.3433L33.3835 16.8408L33.4333 16.3433ZM34.8656 16.4865L34.9153 15.989L34.8656 16.4865ZM36.408 16.9006L36.0373 17.2361L36.0373 17.2361L36.408 16.9006ZM36.408 23.0993L36.0373 22.7638L36.0373 22.7638L36.408 23.0993ZM34.8656 23.5134L34.9153 24.0109L34.8656 23.5134ZM33.4339 23.6566L33.4837 24.1541L33.4339 23.6566ZM32.085 26.9131L32.472 26.5965L32.085 26.9131ZM32.9959 28.0265L33.3829 27.7099L32.9959 28.0265ZM29.4106 33.7931L29.4356 34.2925H29.4356L29.4106 33.7931ZM28.0272 32.9952L28.3438 32.6082L28.0272 32.9952ZM26.9132 32.0838L27.2298 31.6968L26.9132 32.0838ZM23.6566 33.4327L23.1591 33.3829L23.6566 33.4327ZM23.5133 34.8657L24.0109 34.9154L23.5133 34.8657ZM23.0993 36.4081L22.7638 36.0374L22.7638 36.0374L23.0993 36.4081ZM16.9006 36.4081L17.2361 36.0374H17.2361L16.9006 36.4081ZM16.4865 34.8657L15.989 34.9154L16.4865 34.8657ZM16.3433 33.4333L15.8457 33.4831L16.3433 33.4333ZM13.0867 32.0844L12.7701 31.6975L13.0867 32.0844ZM11.9726 32.996L12.2892 33.383V33.383L11.9726 32.996ZM9.29191 32.8623L8.93836 33.2158L9.29191 32.8623ZM7.13756 30.7079L7.49111 30.3544L7.13756 30.7079ZM6.20599 29.4107L5.70661 29.4356L6.20599 29.4107ZM7.00386 28.0272L7.39084 28.3439H7.39084L7.00386 28.0272ZM7.91536 26.9132L7.52838 26.5966L7.91536 26.9132ZM6.56645 23.6566L6.5167 24.1542H6.5167L6.56645 23.6566ZM5.13425 23.5134L5.184 23.0159L5.15918 23.0134H5.13425V23.5134ZM5.13423 23.5134L5.08447 24.0109L5.10929 24.0134H5.13423V23.5134ZM3.5918 23.0993L3.96253 22.7638L3.5918 23.0993ZM3.33325 21.5233H2.83325H3.33325ZM3.33325 18.4766H3.83325H3.33325ZM3.5918 16.9006L3.22107 16.5651L3.22107 16.5651L3.5918 16.9006ZM5.13424 16.4865L5.08449 15.989H5.08449L5.13424 16.4865ZM6.56708 16.3433L6.61683 16.8408H6.61683L6.56708 16.3433ZM7.91598 13.0867L7.52901 13.4033L7.52901 13.4033L7.91598 13.0867ZM7.00394 11.972L7.39091 11.6554L7.39091 11.6554L7.00394 11.972ZM6.20606 10.5885L6.70544 10.6134L6.70544 10.6134L6.20606 10.5885ZM7.13764 9.2913L7.49119 9.64485L7.49119 9.64485L7.13764 9.2913ZM9.29199 7.13694L8.93844 6.78339H8.93844L9.29199 7.13694ZM10.5892 6.20537L10.5643 5.70599H10.5643L10.5892 6.20537ZM11.9727 7.00324L12.2893 6.61626V6.61626L11.9727 7.00324ZM13.0868 7.91478L12.7702 8.30176L13.0868 7.91478ZM16.3433 6.56587L16.8408 6.61562V6.61562L16.3433 6.56587ZM16.4865 5.13431L15.989 5.08456V5.08456L16.4865 5.13431ZM16.9006 3.59186L16.5651 3.22113L16.5651 3.22113L16.9006 3.59186ZM23.0993 3.59186L22.7638 3.96259L23.0993 3.59186ZM24.0133 5.13431V5.13429H23.0133V5.13431H24.0133ZM24.1541 6.51677L24.0109 5.08455L23.0158 5.18406L23.1591 6.61627L24.1541 6.51677ZM24.6458 8.78387C24.5945 8.76264 24.4929 8.70273 24.3943 8.31089C24.2956 7.91834 24.2375 7.35044 24.1541 6.51677L23.1591 6.61627C23.239 7.41614 23.3034 8.07339 23.4246 8.55486C23.5459 9.03704 23.7615 9.5 24.2631 9.70775L24.6458 8.78387ZM26.5965 7.52845C25.9481 8.059 25.5054 8.41946 25.158 8.6272C24.8112 8.83457 24.697 8.80511 24.6458 8.78387L24.2631 9.70775C24.7646 9.9155 25.2445 9.74063 25.6712 9.48546C26.0973 9.23066 26.6076 8.81144 27.2297 8.30241L26.5965 7.52845ZM27.7105 6.61702L26.5965 7.52845L27.2297 8.30241L28.3437 7.39098L27.7105 6.61702ZM29.4355 5.70674C29.1019 5.69011 28.82 5.80699 28.5596 5.96932C28.3114 6.1241 28.033 6.35313 27.7105 6.61702L28.3437 7.39098C28.6869 7.11016 28.9079 6.93065 29.0887 6.81787C29.2575 6.71264 29.3344 6.70295 29.3857 6.7055L29.4355 5.70674ZM31.0613 6.78415C30.7667 6.48947 30.5124 6.23388 30.2809 6.05517C30.038 5.86774 29.7691 5.72338 29.4355 5.70674L29.3857 6.7055C29.4369 6.70806 29.5125 6.72536 29.6699 6.84686C29.8387 6.97708 30.0407 7.17767 30.3542 7.49125L31.0613 6.78415ZM33.2157 8.9385L31.0613 6.78415L30.3542 7.49125L32.5086 9.64561L33.2157 8.9385ZM34.2931 10.5644C34.2765 10.2308 34.1321 9.96187 33.9447 9.71898C33.766 9.48739 33.5104 9.23317 33.2157 8.9385L32.5086 9.64561C32.8222 9.95919 33.0228 10.1612 33.153 10.3299C33.2745 10.4874 33.2918 10.5629 33.2943 10.6142L34.2931 10.5644ZM33.3828 12.2894C33.6467 11.9668 33.8757 11.6884 34.0305 11.4402C34.1928 11.1799 34.3097 10.8979 34.2931 10.5644L33.2943 10.6142C33.2969 10.6654 33.2872 10.7423 33.182 10.9111C33.0692 11.092 32.8897 11.3129 32.6089 11.6561L33.3828 12.2894ZM32.4713 13.4034L33.3828 12.2894L32.6089 11.6561L31.6974 12.7701L32.4713 13.4034ZM31.2159 15.3541C31.1947 15.3029 31.1652 15.1887 31.3726 14.8419C31.5803 14.4945 31.9408 14.0518 32.4713 13.4034L31.6974 12.7701C31.1884 13.3923 30.7691 13.9026 30.5143 14.3287C30.2592 14.7554 30.0843 15.2353 30.292 15.7368L31.2159 15.3541ZM33.483 15.8458C32.6494 15.7624 32.0815 15.7043 31.6889 15.6055C31.2971 15.507 31.2372 15.4054 31.2159 15.3541L30.292 15.7368C30.4998 16.2384 30.9628 16.454 31.4449 16.5753C31.9264 16.6965 32.5837 16.7608 33.3835 16.8408L33.483 15.8458ZM34.9153 15.989L33.483 15.8458L33.3835 16.8408L34.8158 16.9841L34.9153 15.989ZM36.7788 16.5651C36.5546 16.3175 36.2726 16.2008 35.9738 16.1315C35.6888 16.0654 35.33 16.0305 34.9153 15.989L34.8158 16.9841C35.2571 17.0282 35.5403 17.0575 35.7479 17.1056C35.9416 17.1506 36.0029 17.1981 36.0373 17.2361L36.7788 16.5651ZM37.1666 18.4766C37.1666 18.0599 37.1676 17.6994 37.1302 17.4093C37.091 17.105 37.0029 16.8128 36.7788 16.5651L36.0373 17.2361C36.0717 17.2742 36.1129 17.3399 36.1384 17.5371C36.1656 17.7485 36.1666 18.0332 36.1666 18.4766H37.1666ZM37.1666 21.5233V18.4766H36.1666V21.5233H37.1666ZM36.7788 23.4348C37.0029 23.1872 37.091 22.895 37.1302 22.5907C37.1676 22.3006 37.1666 21.9401 37.1666 21.5233H36.1666C36.1666 21.9668 36.1656 22.2515 36.1384 22.4629C36.1129 22.6601 36.0717 22.7258 36.0373 22.7638L36.7788 23.4348ZM34.9153 24.0109C35.33 23.9695 35.6888 23.9346 35.9738 23.8685C36.2726 23.7992 36.5546 23.6825 36.7788 23.4348L36.0373 22.7638C36.0029 22.8019 35.9416 22.8494 35.7479 22.8943C35.5403 22.9425 35.2571 22.9718 34.8158 23.0159L34.9153 24.0109ZM33.4837 24.1541L34.9153 24.0109L34.8158 23.0159L33.3841 23.1591L33.4837 24.1541ZM31.2166 24.6458C31.2378 24.5945 31.2977 24.4929 31.6895 24.3943C32.0821 24.2956 32.65 24.2375 33.4837 24.1541L33.3841 23.1591C32.5843 23.239 31.927 23.3034 31.4456 23.4246C30.9634 23.5459 30.5004 23.7615 30.2927 24.2631L31.2166 24.6458ZM32.472 26.5965C31.9414 25.9481 31.581 25.5054 31.3732 25.158C31.1659 24.8112 31.1953 24.697 31.2166 24.6458L30.2927 24.2631C30.0849 24.7646 30.2598 25.2445 30.515 25.6712C30.7698 26.0973 31.189 26.6076 31.698 27.2298L32.472 26.5965ZM33.3829 27.7099L32.472 26.5965L31.698 27.2298L32.6089 28.3431L33.3829 27.7099ZM34.2932 29.4349C34.3098 29.1013 34.1929 28.8193 34.0306 28.559C33.8758 28.3108 33.6468 28.0324 33.3829 27.7099L32.6089 28.3431C32.8898 28.6863 33.0693 28.9073 33.182 29.0881C33.2873 29.2569 33.297 29.3338 33.2944 29.385L34.2932 29.4349ZM33.2158 31.0607C33.5104 30.766 33.766 30.5118 33.9447 30.2802C34.1322 30.0374 34.2765 29.7684 34.2932 29.4349L33.2944 29.385C33.2919 29.4363 33.2746 29.5119 33.1531 29.6693C33.0228 29.8381 32.8222 30.04 32.5087 30.3536L33.2158 31.0607ZM31.0614 33.2151L33.2158 31.0607L32.5087 30.3536L30.3543 32.508L31.0614 33.2151ZM29.4356 34.2925C29.7691 34.2758 30.038 34.1315 30.2809 33.9441C30.5125 33.7653 30.7667 33.5098 31.0614 33.2151L30.3543 32.508C30.0407 32.8215 29.8388 33.0221 29.67 33.1524C29.5126 33.2739 29.437 33.2912 29.3857 33.2937L29.4356 34.2925ZM27.7106 33.3822C28.0331 33.6461 28.3115 33.8751 28.5597 34.0299C28.82 34.1922 29.102 34.3091 29.4356 34.2925L29.3857 33.2937C29.3345 33.2963 29.2576 33.2866 29.0888 33.1813C28.9079 33.0686 28.687 32.8891 28.3438 32.6082L27.7106 33.3822ZM26.5966 32.4708L27.7106 33.3822L28.3438 32.6082L27.2298 31.6968L26.5966 32.4708ZM24.6458 31.2153C24.6971 31.1941 24.8113 31.1646 25.1581 31.372C25.5055 31.5798 25.9481 31.9402 26.5966 32.4708L27.2298 31.6968C26.6077 31.1878 26.0974 30.7686 25.6713 30.5138C25.2446 30.2586 24.7647 30.0837 24.2631 30.2915L24.6458 31.2153ZM24.1542 33.4824C24.2375 32.6488 24.2957 32.0809 24.3944 31.6883C24.493 31.2965 24.5946 31.2366 24.6458 31.2153L24.2631 30.2915C23.7616 30.4992 23.5459 30.9622 23.4246 31.4444C23.3035 31.9258 23.2391 32.5831 23.1591 33.3829L24.1542 33.4824ZM24.0109 34.9154L24.1542 33.4824L23.1591 33.3829L23.0158 34.8159L24.0109 34.9154ZM23.4348 36.7788C23.6824 36.5547 23.7991 36.2727 23.8684 35.9738C23.9345 35.6889 23.9694 35.3301 24.0109 34.9154L23.0158 34.8159C22.9717 35.2572 22.9424 35.5403 22.8943 35.748C22.8493 35.9417 22.8018 36.0029 22.7638 36.0374L23.4348 36.7788ZM21.5233 37.1666C21.94 37.1666 22.3005 37.1676 22.5906 37.1302C22.8949 37.091 23.1871 37.0029 23.4348 36.7788L22.7638 36.0374C22.7257 36.0718 22.66 36.113 22.4628 36.1384C22.2514 36.1657 21.9667 36.1666 21.5233 36.1666V37.1666ZM18.4766 37.1666H21.5233V36.1666H18.4766V37.1666ZM16.5651 36.7788C16.8127 37.0029 17.1049 37.091 17.4092 37.1302C17.6993 37.1676 18.0598 37.1666 18.4766 37.1666V36.1666C18.0331 36.1666 17.7484 36.1657 17.537 36.1384C17.3398 36.113 17.2741 36.0718 17.2361 36.0374L16.5651 36.7788ZM15.989 34.9154C16.0304 35.3301 16.0653 35.6889 16.1314 35.9738C16.2007 36.2727 16.3174 36.5547 16.5651 36.7788L17.2361 36.0374C17.198 36.0029 17.1505 35.9417 17.1056 35.748C17.0574 35.5403 17.0281 35.2572 16.984 34.8159L15.989 34.9154ZM15.8457 33.4831L15.989 34.9154L16.984 34.8159L16.8408 33.3836L15.8457 33.4831ZM15.3541 31.216C15.4053 31.2372 15.5069 31.2971 15.6055 31.689C15.7042 32.0815 15.7624 32.6494 15.8457 33.4831L16.8408 33.3836C16.7608 32.5837 16.6964 31.9265 16.5753 31.445C16.454 30.9628 16.2383 30.4999 15.7368 30.2921L15.3541 31.216ZM13.4033 32.4714C14.0518 31.9409 14.4944 31.5804 14.8418 31.3727C15.1886 31.1653 15.3028 31.1948 15.3541 31.216L15.7368 30.2921C15.2352 30.0844 14.7553 30.2592 14.3286 30.5144C13.9025 30.7692 13.3922 31.1884 12.7701 31.6975L13.4033 32.4714ZM12.2892 33.383L13.4033 32.4714L12.7701 31.6975L11.656 32.609L12.2892 33.383ZM10.5642 34.2932C10.8978 34.3099 11.1797 34.193 11.4401 34.0307C11.6883 33.8759 11.9667 33.6468 12.2892 33.383L11.656 32.609C11.3128 32.8898 11.0918 33.0693 10.911 33.1821C10.7422 33.2873 10.6653 33.297 10.614 33.2945L10.5642 34.2932ZM8.93836 33.2158C9.23304 33.5105 9.48726 33.7661 9.71884 33.9448C9.96173 34.1322 10.2306 34.2766 10.5642 34.2932L10.614 33.2945C10.5628 33.2919 10.4872 33.2746 10.3298 33.1531C10.161 33.0229 9.95905 32.8223 9.64547 32.5087L8.93836 33.2158ZM6.78401 31.0615L8.93836 33.2158L9.64547 32.5087L7.49111 30.3544L6.78401 31.0615ZM5.70661 29.4356C5.72324 29.7692 5.8676 30.0381 6.05503 30.281C6.23374 30.5126 6.48933 30.7668 6.78401 31.0615L7.49111 30.3544C7.17753 30.0408 6.97694 29.8388 6.84672 29.6701C6.72522 29.5126 6.70792 29.437 6.70536 29.3858L5.70661 29.4356ZM6.61688 27.7106C6.35299 28.0331 6.12396 28.3115 5.96918 28.5598C5.80685 28.8201 5.68997 29.102 5.70661 29.4356L6.70536 29.3858C6.70281 29.3346 6.71251 29.2576 6.81773 29.0889C6.93051 28.908 7.11002 28.6871 7.39084 28.3439L6.61688 27.7106ZM7.52838 26.5966L6.61688 27.7106L7.39084 28.3439L8.30233 27.2298L7.52838 26.5966ZM8.7838 24.6458C8.80503 24.6971 8.8345 24.8113 8.62713 25.1581C8.41939 25.5055 8.05892 25.9481 7.52838 26.5966L8.30233 27.2298C8.81137 26.6077 9.23058 26.0974 9.48538 25.6713C9.74056 25.2445 9.91543 24.7647 9.70768 24.2631L8.7838 24.6458ZM6.5167 24.1542C7.35037 24.2375 7.91827 24.2956 8.31082 24.3944C8.70265 24.493 8.76257 24.5946 8.7838 24.6458L9.70768 24.2631C9.49993 23.7616 9.03696 23.5459 8.55479 23.4246C8.07332 23.3035 7.41607 23.2391 6.6162 23.1591L6.5167 24.1542ZM5.08449 24.0109L6.5167 24.1542L6.6162 23.1591L5.184 23.0159L5.08449 24.0109ZM5.13423 24.0134H5.13425V23.0134H5.13423V24.0134ZM3.22107 23.4348C3.44519 23.6825 3.72719 23.7992 4.02606 23.8685C4.31102 23.9346 4.66982 23.9695 5.08447 24.0109L5.18398 23.0159C4.74272 22.9718 4.45958 22.9425 4.25194 22.8943C4.0582 22.8494 3.99696 22.8019 3.96253 22.7638L3.22107 23.4348ZM2.83325 21.5233C2.83325 21.9401 2.83228 22.3006 2.86967 22.5907C2.90889 22.895 2.99696 23.1872 3.22107 23.4348L3.96253 22.7638C3.9281 22.7258 3.88689 22.6601 3.86147 22.4629C3.83422 22.2515 3.83325 21.9668 3.83325 21.5233H2.83325ZM2.83325 18.4766L2.83325 21.5233H3.83325L3.83325 18.4766H2.83325ZM3.22107 16.5651C2.99696 16.8128 2.90889 17.105 2.86967 17.4093C2.83228 17.6994 2.83325 18.0599 2.83325 18.4766H3.83325C3.83325 18.0332 3.83422 17.7485 3.86147 17.5371C3.88689 17.3399 3.9281 17.2742 3.96253 17.2361L3.22107 16.5651ZM5.08449 15.989C4.66983 16.0305 4.31103 16.0654 4.02606 16.1315C3.7272 16.2008 3.44519 16.3175 3.22107 16.5651L3.96253 17.2361C3.99696 17.1981 4.05821 17.1505 4.25194 17.1056C4.45958 17.0575 4.74273 17.0282 5.184 16.9841L5.08449 15.989ZM6.51733 15.8457L5.08449 15.989L5.184 16.9841L6.61683 16.8408L6.51733 15.8457ZM8.78443 15.3541C8.76319 15.4053 8.70328 15.5069 8.31144 15.6055C7.9189 15.7043 7.351 15.7624 6.51733 15.8457L6.61683 16.8408C7.4167 16.7608 8.07395 16.6964 8.55542 16.5753C9.03759 16.454 9.50055 16.2383 9.7083 15.7368L8.78443 15.3541ZM7.52901 13.4033C8.05955 14.0518 8.42002 14.4944 8.62776 14.8418C8.83512 15.1886 8.80566 15.3028 8.78443 15.3541L9.7083 15.7368C9.91606 15.2352 9.74119 14.7553 9.48601 14.3286C9.23121 13.9025 8.81199 13.3922 8.30296 12.7701L7.52901 13.4033ZM6.61696 12.2886L7.52901 13.4033L8.30296 12.7701L7.39091 11.6554L6.61696 12.2886ZM5.70668 10.5636C5.69004 10.8972 5.80693 11.1791 5.96926 11.4395C6.12404 11.6877 6.35307 11.9661 6.61696 12.2886L7.39091 11.6554C7.11009 11.3121 6.93059 11.0912 6.81781 10.9103C6.71258 10.7416 6.70288 10.6647 6.70544 10.6134L5.70668 10.5636ZM6.78408 8.93774C6.48941 9.23242 6.23381 9.48664 6.05511 9.71823C5.86768 9.96111 5.72332 10.23 5.70668 10.5636L6.70544 10.6134C6.708 10.5622 6.7253 10.4866 6.8468 10.3291C6.97701 10.1604 7.17761 9.95843 7.49119 9.64485L6.78408 8.93774ZM8.93844 6.78339L6.78408 8.93774L7.49119 9.64485L9.64554 7.4905L8.93844 6.78339ZM10.5643 5.70599C10.2307 5.72263 9.96181 5.86698 9.71892 6.05441C9.48733 6.23312 9.23311 6.48871 8.93844 6.78339L9.64554 7.4905C9.95912 7.17692 10.1611 6.97632 10.3298 6.8461C10.4873 6.72461 10.5629 6.7073 10.6141 6.70475L10.5643 5.70599ZM12.2893 6.61626C11.9668 6.35237 11.6884 6.12334 11.4402 5.96857C11.1798 5.80624 10.8979 5.68935 10.5643 5.70599L10.6141 6.70475C10.6654 6.70219 10.7423 6.71189 10.911 6.81712C11.0919 6.9299 11.3128 7.1094 11.6561 7.39022L12.2893 6.61626ZM13.4034 7.5278L12.2893 6.61626L11.6561 7.39022L12.7702 8.30176L13.4034 7.5278ZM15.3541 8.78322C15.3029 8.80445 15.1887 8.83392 14.8419 8.62655C14.4945 8.41881 14.0518 8.05834 13.4034 7.5278L12.7702 8.30176C13.3923 8.81079 13.9026 9.23001 14.3287 9.48481C14.7554 9.73998 15.2353 9.91485 15.7368 9.7071L15.3541 8.78322ZM15.8458 6.51612C15.7624 7.34979 15.7043 7.91769 15.6056 8.31024C15.507 8.70207 15.4054 8.76199 15.3541 8.78322L15.7368 9.7071C16.2384 9.49935 16.454 9.03639 16.5753 8.55421C16.6965 8.07274 16.7609 7.41549 16.8408 6.61562L15.8458 6.51612ZM15.989 5.08456L15.8458 6.51612L16.8408 6.61562L16.984 5.18406L15.989 5.08456ZM16.5651 3.22113C16.3174 3.44525 16.2007 3.72726 16.1314 4.02613C16.0653 4.31109 16.0304 4.66989 15.989 5.08456L16.984 5.18406C17.0281 4.74279 17.0574 4.45964 17.1056 4.252C17.1505 4.05827 17.198 3.99702 17.2361 3.96259L16.5651 3.22113ZM18.4766 2.83331C18.0598 2.83331 17.6993 2.83234 17.4092 2.86973C17.1049 2.90895 16.8127 2.99702 16.5651 3.22113L17.2361 3.96259C17.2741 3.92816 17.3398 3.88695 17.537 3.86153C17.7484 3.83428 18.0331 3.83331 18.4766 3.83331V2.83331ZM21.5233 2.83331H18.4766V3.83331H21.5233V2.83331ZM23.4348 3.22113C23.1871 2.99702 22.8949 2.90895 22.5906 2.86973C22.3005 2.83234 21.94 2.83331 21.5233 2.83331V3.83331C21.9667 3.83331 22.2514 3.83428 22.4628 3.86153C22.66 3.88695 22.7257 3.92816 22.7638 3.96259L23.4348 3.22113ZM24.0109 5.08453C23.9694 4.66988 23.9345 4.31108 23.8684 4.02612C23.7991 3.72725 23.6824 3.44525 23.4348 3.22113L22.7638 3.96259C22.8018 3.99702 22.8493 4.05827 22.8943 4.252C22.9424 4.45964 22.9717 4.74278 23.0158 5.18404L24.0109 5.08453ZM26.1666 20C26.1666 23.4057 23.4057 26.1666 19.9999 26.1666V27.1666C23.958 27.1666 27.1666 23.958 27.1666 20H26.1666ZM19.9999 13.8333C23.4057 13.8333 26.1666 16.5942 26.1666 20H27.1666C27.1666 16.0419 23.958 12.8333 19.9999 12.8333V13.8333ZM13.8333 20C13.8333 16.5942 16.5942 13.8333 19.9999 13.8333V12.8333C16.0419 12.8333 12.8333 16.0419 12.8333 20H13.8333ZM19.9999 26.1666C16.5942 26.1666 13.8333 23.4057 13.8333 20H12.8333C12.8333 23.958 16.0419 27.1666 19.9999 27.1666V26.1666Z" fill="#6C63FF"/>
</svg>
