<svg width="40" height="40" viewBox="0 0 40 40" fill="none" xmlns="http://www.w3.org/2000/svg">
<path d="M3.33325 20L2.94282 19.6877L2.69294 20L2.94282 20.3124L3.33325 20ZM18.3333 20.5C18.6094 20.5 18.8333 20.2762 18.8333 20C18.8333 19.7239 18.6094 19.5 18.3333 19.5V20.5ZM9.60948 11.3543L2.94282 19.6877L3.72369 20.3124L10.3904 11.979L9.60948 11.3543ZM2.94282 20.3124L9.60948 28.6457L10.3904 28.021L3.72369 19.6877L2.94282 20.3124ZM3.33325 20.5H18.3333V19.5H3.33325V20.5Z" fill="#6C63FF"/>
<path d="M17.1407 32.9318L17.5222 32.6086L17.1407 32.9318ZM29.6804 35.5022L29.5982 35.9954L29.6804 35.5022ZM35.6059 35.4143L35.2827 35.0328L35.6059 35.4143ZM29.6804 4.49771L29.5982 4.00451L29.6804 4.49771ZM35.6059 4.58563L35.9291 4.20412L35.6059 4.58563ZM20.0914 6.60278L29.7626 4.99091L29.5982 4.00451L19.927 5.61638L20.0914 6.60278ZM36.1667 10.4161V29.5839H37.1667V10.4161H36.1667ZM29.7626 35.0091L20.0914 33.3972L19.927 34.3836L29.5982 35.9954L29.7626 35.0091ZM17.1667 13.5532V10.0552H16.1667V13.5532H17.1667ZM17.1667 29.9448V26.7766H16.1667V29.9448H17.1667ZM20.0914 33.3972C19.2805 33.262 18.7182 33.1674 18.2967 33.0419C17.8886 32.9204 17.6727 32.7863 17.5222 32.6086L16.7592 33.255C17.0827 33.6369 17.5028 33.8489 18.0114 34.0003C18.5065 34.1478 19.1415 34.2527 19.927 34.3836L20.0914 33.3972ZM16.1667 29.9448C16.1667 30.7411 16.1658 31.3847 16.2298 31.8973C16.2956 32.4238 16.4357 32.8731 16.7592 33.255L17.5222 32.6086C17.3717 32.431 17.2749 32.196 17.2221 31.7734C17.1677 31.337 17.1667 30.7668 17.1667 29.9448H16.1667ZM36.1667 29.5839C36.1667 31.2431 36.1656 32.4338 36.0391 33.3248C35.9146 34.2019 35.6799 34.6964 35.2827 35.0328L35.9291 35.7958C36.5928 35.2336 36.8884 34.4568 37.0292 33.4653C37.1679 32.4876 37.1667 31.2125 37.1667 29.5839H36.1667ZM29.5982 35.9954C31.2046 36.2632 32.4622 36.474 33.4494 36.4978C34.4505 36.522 35.2654 36.3581 35.9291 35.7958L35.2827 35.0328C34.8855 35.3693 34.3591 35.5195 33.4735 35.4981C32.5739 35.4764 31.3992 35.2818 29.7626 35.0091L29.5982 35.9954ZM29.7626 4.99091C31.3992 4.71814 32.5739 4.52356 33.4735 4.50182C34.3591 4.48043 34.8855 4.63068 35.2827 4.96714L35.9291 4.20412C35.2654 3.64189 34.4505 3.47793 33.4494 3.50211C32.4622 3.52596 31.2046 3.73677 29.5982 4.00451L29.7626 4.99091ZM37.1667 10.4161C37.1667 8.78744 37.1679 7.51233 37.0292 6.53467C36.8884 5.54317 36.5928 4.76636 35.9291 4.20412L35.2827 4.96714C35.6799 5.3036 35.9146 5.7981 36.0391 6.67519C36.1656 7.56612 36.1667 8.75688 36.1667 10.4161H37.1667ZM19.927 5.61638C19.1415 5.7473 18.5065 5.8522 18.0114 5.99961C17.5028 6.15101 17.0827 6.36311 16.7592 6.74496L17.5222 7.39134C17.6727 7.2137 17.8886 7.07954 18.2967 6.95804C18.7182 6.83256 19.2805 6.73791 20.0914 6.60278L19.927 5.61638ZM17.1667 10.0552C17.1667 9.23315 17.1677 8.66292 17.2221 8.22653C17.2749 7.80399 17.3717 7.56897 17.5222 7.39134L16.7592 6.74496C16.4357 7.12682 16.2956 7.57613 16.2298 8.10264C16.1658 8.61529 16.1667 9.25882 16.1667 10.0552H17.1667Z" fill="#6C63FF"/>
</svg>
