<svg width="300" height="187" viewBox="0 0 300 187" fill="none" xmlns="http://www.w3.org/2000/svg">
<g clip-path="url(#clip0_36_584)">
<path d="M72.6627 167.849L72.9963 160.349C76.4737 158.49 80.3522 157.508 84.2951 157.488C78.8685 161.925 79.5467 170.478 75.8675 176.444C74.7058 178.296 73.1421 179.863 71.2925 181.028C69.4429 182.194 67.3547 182.928 65.1826 183.177L60.6414 185.958C60.0183 182.484 60.1556 178.916 61.0441 175.5C61.9325 172.085 63.5509 168.902 65.7877 166.172C67.0577 164.653 68.5139 163.3 70.1221 162.145C71.2097 165.013 72.6627 167.849 72.6627 167.849Z" fill="#F2F2F2"/>
<path d="M266.434 12.2206H55.0298C54.9411 12.2186 54.8566 12.182 54.7946 12.1186C54.7325 12.0551 54.6978 11.9699 54.6978 11.8811C54.6978 11.7923 54.7325 11.7071 54.7946 11.6437C54.8566 11.5802 54.9411 11.5436 55.0298 11.5416H266.434C266.523 11.5436 266.607 11.5802 266.669 11.6437C266.731 11.7071 266.766 11.7923 266.766 11.8811C266.766 11.9699 266.731 12.0551 266.669 12.1186C266.607 12.182 266.523 12.2186 266.434 12.2206Z" fill="#CACACA"/>
<path d="M62.5042 7.46813C64.5215 7.46813 66.1569 5.79633 66.1569 3.73406C66.1569 1.6718 64.5215 0 62.5042 0C60.4869 0 58.8516 1.6718 58.8516 3.73406C58.8516 5.79633 60.4869 7.46813 62.5042 7.46813Z" fill="#3F3D56"/>
<path d="M75.1224 7.46813C77.1397 7.46813 78.7751 5.79633 78.7751 3.73406C78.7751 1.6718 77.1397 0 75.1224 0C73.1051 0 71.4697 1.6718 71.4697 3.73406C71.4697 5.79633 73.1051 7.46813 75.1224 7.46813Z" fill="#3F3D56"/>
<path d="M87.7406 7.46813C89.7579 7.46813 91.3932 5.79633 91.3932 3.73406C91.3932 1.6718 89.7579 0 87.7406 0C85.7232 0 84.0879 1.6718 84.0879 3.73406C84.0879 5.79633 85.7232 7.46813 87.7406 7.46813Z" fill="#3F3D56"/>
<path d="M258.873 0.925529H249.909C249.732 0.929057 249.563 1.00211 249.438 1.12901C249.314 1.2559 249.244 1.42652 249.244 1.60422C249.244 1.78192 249.314 1.95253 249.438 2.07943C249.563 2.20632 249.732 2.27938 249.909 2.28291H258.873C259.051 2.27938 259.22 2.20632 259.344 2.07943C259.469 1.95253 259.538 1.78192 259.538 1.60422C259.538 1.42652 259.469 1.2559 259.344 1.12901C259.22 1.00211 259.051 0.929057 258.873 0.925529Z" fill="#3F3D56"/>
<path d="M258.873 3.47311H249.909C249.732 3.47664 249.563 3.5497 249.438 3.67659C249.314 3.80349 249.244 3.9741 249.244 4.1518C249.244 4.3295 249.314 4.50012 249.438 4.62701C249.563 4.75391 249.732 4.82696 249.909 4.83049H258.873C259.051 4.82696 259.22 4.75391 259.344 4.62701C259.469 4.50012 259.538 4.3295 259.538 4.1518C259.538 3.9741 259.469 3.80349 259.344 3.67659C259.22 3.5497 259.051 3.47664 258.873 3.47311Z" fill="#3F3D56"/>
<path d="M258.873 6.01736H249.909C249.732 6.02088 249.563 6.09393 249.438 6.22083C249.314 6.34772 249.244 6.51834 249.244 6.69605C249.244 6.87375 249.314 7.04436 249.438 7.17126C249.563 7.29815 249.732 7.37121 249.909 7.37473H258.873C259.051 7.37121 259.22 7.29815 259.344 7.17126C259.469 7.04436 259.538 6.87375 259.538 6.69605C259.538 6.51834 259.469 6.34772 259.344 6.22083C259.22 6.09393 259.051 6.02088 258.873 6.01736Z" fill="#3F3D56"/>
<path d="M219.559 38.8295H74.4563C73.7413 38.8296 73.0556 39.1134 72.5498 39.6186C72.0439 40.1239 71.7592 40.8093 71.7583 41.5242V110.018C71.7591 110.734 72.0436 111.419 72.5494 111.925C73.0552 112.431 73.741 112.716 74.4563 112.716H219.559C220.273 112.715 220.959 112.43 221.464 111.924C221.969 111.419 222.253 110.733 222.253 110.018V41.5242C222.253 40.8098 221.969 40.1248 221.463 39.6196C220.958 39.1144 220.273 38.8303 219.559 38.8295Z" fill="#3F3D56"/>
<path d="M181.231 71.8279C180.516 71.8286 179.831 72.1127 179.326 72.6179C178.821 73.1231 178.537 73.8081 178.536 74.5226V93.8702C178.537 94.585 178.821 95.2704 179.326 95.7762C179.831 96.2819 180.516 96.5668 181.231 96.5682H222.253V71.8279H181.231Z" fill="#6C63FF"/>
<path opacity="0.5" d="M291.23 96.5668H181.232C180.517 96.566 179.832 96.2816 179.326 95.7761C178.821 95.2705 178.536 94.585 178.536 93.87V74.5232C178.536 73.8082 178.821 73.1227 179.326 72.6172C179.832 72.1116 180.517 71.8273 181.232 71.8265H291.23C291.945 71.8273 292.631 72.1116 293.136 72.6172C293.642 73.1227 293.926 73.8082 293.927 74.5232V93.87C293.926 94.585 293.642 95.2705 293.136 95.7761C292.631 96.2816 291.945 96.566 291.23 96.5668Z" fill="#6C63FF"/>
<path d="M196.108 89.8096C198.525 89.8096 200.484 87.8504 200.484 85.4335C200.484 83.0166 198.525 81.0573 196.108 81.0573C193.691 81.0573 191.732 83.0166 191.732 85.4335C191.732 87.8504 193.691 89.8096 196.108 89.8096Z" fill="white"/>
<path d="M287.822 84.1619H208.748C208.403 84.1619 208.071 84.0246 207.827 83.7803C207.583 83.5359 207.445 83.2044 207.445 82.8588C207.445 82.5132 207.583 82.1817 207.827 81.9374C208.071 81.693 208.403 81.5557 208.748 81.5557H287.822C288.168 81.5557 288.499 81.693 288.744 81.9374C288.988 82.1817 289.125 82.5132 289.125 82.8588C289.125 83.2044 288.988 83.5359 288.744 83.7803C288.499 84.0246 288.168 84.1619 287.822 84.1619Z" fill="white"/>
<path d="M257.789 89.3113H208.749C208.403 89.3113 208.071 89.174 207.827 88.9296C207.583 88.6852 207.445 88.3537 207.445 88.0081C207.445 87.6624 207.583 87.331 207.827 87.0866C208.071 86.8422 208.403 86.7049 208.749 86.7049H257.789C258.135 86.7049 258.466 86.8422 258.711 87.0866C258.955 87.331 259.092 87.6624 259.092 88.0081C259.092 88.3537 258.955 88.6852 258.711 88.9296C258.466 89.174 258.135 89.3113 257.789 89.3113Z" fill="white"/>
<path d="M50.6193 182.389L54.4066 182.389L56.2083 167.781H50.6187L50.6193 182.389Z" fill="#FFB6B6"/>
<path d="M49.6533 181.152L50.7193 181.152L54.8812 179.46L57.1118 181.152H57.1121C58.3727 181.152 59.5816 181.653 60.473 182.544C61.3643 183.436 61.8651 184.645 61.8652 185.905V186.06L49.6535 186.06L49.6533 181.152Z" fill="#2F2E41"/>
<path d="M16.3994 177.465L19.7892 179.154L27.9181 166.884L22.9155 164.391L16.3994 177.465Z" fill="#FFB6B6"/>
<path d="M16.0861 175.927L17.0401 176.403L21.52 176.745L22.7614 179.254L22.7617 179.255C23.8898 179.817 24.7484 180.804 25.1485 182C25.5487 183.195 25.4576 184.501 24.8953 185.629L24.8264 185.767L13.897 180.32L16.0861 175.927Z" fill="#2F2E41"/>
<path d="M52.2976 116.045L28.2172 116.673L28.636 128.399C28.636 128.399 28.2172 131.54 29.0548 132.377C29.8924 133.215 30.3112 133.215 29.8924 134.681C29.4736 136.147 28.3909 150.151 28.3909 150.151C28.3909 150.151 18.5076 167.627 18.9264 168.046C19.3452 168.464 19.764 168.046 19.3452 169.093C18.9264 170.139 18.5076 169.721 18.9264 170.139C19.2974 170.539 19.6468 170.959 19.9734 171.396H26.7989C26.7989 171.396 27.1806 169.302 27.1806 169.093C27.1806 168.883 27.5994 167.627 27.5994 167.417C27.5994 167.208 39.5245 154.573 39.5245 154.573L42.0373 133.634L48.1097 154.154C48.1097 154.154 48.1097 172.162 48.5285 172.581C48.9473 173 48.9473 172.791 48.7379 173.628C48.5285 174.466 47.6909 174.256 48.3191 174.885C48.9473 175.513 49.1567 174.466 48.9473 175.513L48.7379 176.56L56.7827 176.65C56.7827 176.65 57.6203 174.885 57.2015 174.256C56.7827 173.628 56.8078 173.8 57.3187 172.772C57.8297 171.744 58.0391 171.534 57.8297 171.325C57.6203 171.115 57.6203 170.002 57.6203 170.002C57.6203 170.002 54.601 128.818 54.601 128.189C54.5852 127.866 54.6447 127.544 54.7749 127.247V126.395L53.9728 123.373L52.2976 116.045Z" fill="#2F2E41"/>
<path d="M290.76 79.6867C288.932 79.6867 287.146 79.1448 285.626 78.1294C284.107 77.1141 282.922 75.671 282.223 73.9826C281.524 72.2941 281.341 70.4362 281.697 68.6438C282.054 66.8514 282.934 65.2049 284.226 63.9127C285.518 62.6204 287.165 61.7404 288.957 61.3838C290.749 61.0273 292.607 61.2103 294.296 61.9097C295.984 62.609 297.427 63.7934 298.443 65.3129C299.458 66.8325 300 68.619 300 70.4465C300 72.8971 299.026 75.2474 297.294 76.9803C295.561 78.7132 293.21 79.6867 290.76 79.6867Z" fill="#6C63FF"/>
<path d="M294.406 69.535H291.671V66.8006C291.671 66.5588 291.575 66.327 291.404 66.156C291.233 65.9851 291.002 65.8891 290.76 65.8891C290.518 65.8891 290.286 65.9851 290.115 66.156C289.944 66.327 289.848 66.5588 289.848 66.8006V69.535H287.114C286.994 69.5348 286.875 69.5582 286.765 69.6039C286.654 69.6496 286.553 69.7167 286.468 69.8014C286.383 69.8861 286.316 69.9866 286.27 70.0973C286.224 70.208 286.201 70.3267 286.201 70.4465C286.201 70.5664 286.224 70.685 286.27 70.7957C286.316 70.9064 286.383 71.007 286.468 71.0917C286.553 71.1763 286.654 71.2434 286.765 71.2891C286.875 71.3348 286.994 71.3582 287.114 71.358H289.848V74.0925C289.848 74.3342 289.944 74.5661 290.115 74.737C290.286 74.908 290.518 75.004 290.76 75.004C291.002 75.004 291.233 74.908 291.404 74.737C291.575 74.5661 291.671 74.3342 291.671 74.0925V71.358H294.406C294.648 71.358 294.879 71.262 295.05 71.091C295.221 70.9201 295.317 70.6883 295.317 70.4465C295.317 70.2048 295.221 69.9729 295.05 69.802C294.879 69.6311 294.648 69.535 294.406 69.535Z" fill="white"/>
<path d="M149.741 96.6919H114.633C113.917 96.6927 113.231 96.9772 112.726 97.483C112.22 97.9889 111.935 98.6747 111.935 99.39V112.716H152.435V99.39C152.435 98.6752 152.151 97.9898 151.646 97.484C151.14 96.9783 150.455 96.6934 149.741 96.6919Z" fill="#6C63FF"/>
<path opacity="0.5" d="M149.739 134.137H114.631C113.916 134.136 113.231 133.852 112.725 133.346C112.22 132.84 111.935 132.155 111.935 131.44V99.3887C111.935 98.6737 112.22 97.9882 112.725 97.4827C113.231 96.9771 113.916 96.6927 114.631 96.6919H149.739C150.454 96.6927 151.14 96.9771 151.645 97.4827C152.151 97.9882 152.435 98.6737 152.436 99.3887V131.44C152.435 132.155 152.151 132.84 151.645 133.346C151.14 133.852 150.454 134.136 149.739 134.137Z" fill="#6C63FF"/>
<path d="M124.975 111.884C127.392 111.884 129.351 109.925 129.351 107.508C129.351 105.091 127.392 103.132 124.975 103.132C122.558 103.132 120.599 105.091 120.599 107.508C120.599 109.925 122.558 111.884 124.975 111.884Z" fill="white"/>
<path d="M142.468 118.536H121.902C121.557 118.536 121.225 118.398 120.981 118.154C120.736 117.91 120.599 117.578 120.599 117.232C120.599 116.887 120.736 116.555 120.981 116.311C121.225 116.067 121.557 115.929 121.902 115.929H142.468C142.814 115.929 143.145 116.067 143.39 116.311C143.634 116.555 143.771 116.887 143.771 117.232C143.771 117.578 143.634 117.91 143.39 118.154C143.145 118.398 142.814 118.536 142.468 118.536Z" fill="white"/>
<path d="M131.826 123.685H121.902C121.557 123.685 121.225 123.548 120.981 123.303C120.736 123.059 120.599 122.727 120.599 122.382C120.599 122.036 120.736 121.705 120.981 121.46C121.225 121.216 121.557 121.079 121.902 121.079H131.826C132.172 121.079 132.504 121.216 132.748 121.46C132.992 121.705 133.13 122.036 133.13 122.382C133.13 122.727 132.992 123.059 132.748 123.303C132.504 123.548 132.172 123.685 131.826 123.685Z" fill="white"/>
<path d="M113.899 143.544C112.072 143.544 110.285 143.002 108.766 141.986C107.246 140.971 106.062 139.528 105.363 137.84C104.663 136.151 104.48 134.293 104.837 132.501C105.193 130.708 106.073 129.062 107.366 127.77C108.658 126.477 110.304 125.597 112.097 125.241C113.889 124.884 115.747 125.067 117.435 125.767C119.124 126.466 120.567 127.65 121.582 129.17C122.598 130.689 123.14 132.476 123.14 134.303C123.14 136.754 122.166 139.104 120.433 140.837C118.7 142.57 116.35 143.544 113.899 143.544Z" fill="#6C63FF"/>
<path d="M117.545 133.392H114.811V130.657C114.811 130.416 114.715 130.184 114.544 130.013C114.373 129.842 114.141 129.746 113.9 129.746C113.658 129.746 113.426 129.842 113.255 130.013C113.084 130.184 112.988 130.416 112.988 130.657V133.392H110.254C110.134 133.392 110.015 133.415 109.904 133.461C109.793 133.507 109.693 133.574 109.608 133.658C109.523 133.743 109.456 133.844 109.41 133.954C109.364 134.065 109.34 134.184 109.34 134.303C109.34 134.423 109.364 134.542 109.41 134.653C109.456 134.763 109.523 134.864 109.608 134.949C109.693 135.033 109.793 135.1 109.904 135.146C110.015 135.192 110.134 135.215 110.254 135.215H112.988V137.949C112.988 138.191 113.084 138.423 113.255 138.594C113.426 138.765 113.658 138.861 113.9 138.861C114.141 138.861 114.373 138.765 114.544 138.594C114.715 138.423 114.811 138.191 114.811 137.949V135.215H117.545C117.787 135.215 118.019 135.119 118.19 134.948C118.361 134.777 118.457 134.545 118.457 134.303C118.457 134.062 118.361 133.83 118.19 133.659C118.019 133.488 117.787 133.392 117.545 133.392Z" fill="white"/>
<path d="M109.622 76.3162H74.5142C73.7992 76.3154 73.1137 76.031 72.6082 75.5254C72.1026 75.0199 71.8182 74.3344 71.8174 73.6194V41.568C71.8182 40.853 72.1026 40.1676 72.6082 39.662C73.1138 39.1565 73.7992 38.8721 74.5142 38.8713H109.622C110.337 38.8721 111.023 39.1565 111.528 39.662C112.034 40.1676 112.318 40.853 112.319 41.568V73.6194C112.318 74.3344 112.034 75.0199 111.528 75.5254C111.023 76.031 110.337 76.3154 109.622 76.3162Z" fill="#6C63FF"/>
<path d="M84.8581 56.7382C87.275 56.7382 89.2343 54.7789 89.2343 52.362C89.2343 49.9451 87.275 47.9858 84.8581 47.9858C82.4412 47.9858 80.4819 49.9451 80.4819 52.362C80.4819 54.7789 82.4412 56.7382 84.8581 56.7382Z" fill="#6C63FF"/>
<path d="M102.351 62.0524H81.7851C81.4395 62.0524 81.108 61.9151 80.8636 61.6707C80.6192 61.4263 80.4819 61.0948 80.4819 60.7492C80.4819 60.4036 80.6192 60.0722 80.8636 59.8278C81.108 59.5834 81.4395 59.4461 81.7851 59.4461H102.351C102.697 59.4461 103.028 59.5834 103.273 59.8278C103.517 60.0722 103.654 60.4036 103.654 60.7492C103.654 61.0948 103.517 61.4263 103.273 61.6707C103.028 61.9151 102.697 62.0524 102.351 62.0524Z" fill="#6C63FF"/>
<path d="M91.7093 67.2017H81.7851C81.4395 67.2017 81.108 67.0644 80.8636 66.82C80.6192 66.5756 80.4819 66.2441 80.4819 65.8985C80.4819 65.5529 80.6192 65.2214 80.8636 64.977C81.108 64.7326 81.4395 64.5953 81.7851 64.5953H91.7093C92.0549 64.5953 92.3864 64.7326 92.6308 64.977C92.8751 65.2214 93.0125 65.5529 93.0125 65.8985C93.0125 66.2441 92.8751 66.5756 92.6308 66.82C92.3864 67.0644 92.0549 67.2017 91.7093 67.2017Z" fill="#6C63FF"/>
<path opacity="0.5" d="M109.622 76.3162H74.5142C73.7992 76.3154 73.1137 76.031 72.6082 75.5254C72.1026 75.0199 71.8182 74.3344 71.8174 73.6194V41.568C71.8182 40.853 72.1026 40.1676 72.6082 39.662C73.1138 39.1565 73.7992 38.8721 74.5142 38.8713H109.622C110.337 38.8721 111.023 39.1565 111.528 39.662C112.034 40.1676 112.318 40.853 112.319 41.568V73.6194C112.318 74.3344 112.034 75.0199 111.528 75.5254C111.023 76.031 110.337 76.3154 109.622 76.3162Z" fill="#6C63FF"/>
<path d="M84.8581 56.7382C87.275 56.7382 89.2343 54.7789 89.2343 52.362C89.2343 49.9451 87.275 47.9858 84.8581 47.9858C82.4412 47.9858 80.4819 49.9451 80.4819 52.362C80.4819 54.7789 82.4412 56.7382 84.8581 56.7382Z" fill="white"/>
<path d="M102.351 62.0524H81.7851C81.4395 62.0524 81.108 61.9151 80.8636 61.6707C80.6192 61.4263 80.4819 61.0948 80.4819 60.7492C80.4819 60.4036 80.6192 60.0722 80.8636 59.8278C81.108 59.5834 81.4395 59.4461 81.7851 59.4461H102.351C102.697 59.4461 103.028 59.5834 103.273 59.8278C103.517 60.0722 103.654 60.4036 103.654 60.7492C103.654 61.0948 103.517 61.4263 103.273 61.6707C103.028 61.9151 102.697 62.0524 102.351 62.0524Z" fill="white"/>
<path d="M91.7093 67.2017H81.7851C81.4395 67.2017 81.108 67.0644 80.8636 66.82C80.6192 66.5756 80.4819 66.2441 80.4819 65.8985C80.4819 65.5529 80.6192 65.2214 80.8636 64.977C81.108 64.7326 81.4395 64.5953 81.7851 64.5953H91.7093C92.0549 64.5953 92.3864 64.7326 92.6308 64.977C92.8751 65.2214 93.0125 65.5529 93.0125 65.8985C93.0125 66.2441 92.8751 66.5756 92.6308 66.82C92.3864 67.0644 92.0549 67.2017 91.7093 67.2017Z" fill="white"/>
<path d="M75.2387 45.7869C79.1162 45.7869 82.2596 42.6436 82.2596 38.766C82.2596 34.8885 79.1162 31.7451 75.2387 31.7451C71.3611 31.7451 68.2178 34.8885 68.2178 38.766C68.2178 42.6436 71.3611 45.7869 75.2387 45.7869Z" fill="#FF6584"/>
<path d="M94.5049 185.815C94.5051 185.868 94.4949 185.92 94.475 185.968C94.455 186.016 94.4257 186.06 94.3887 186.097C94.3518 186.134 94.3079 186.163 94.2595 186.183C94.2112 186.203 94.1594 186.213 94.1071 186.213H0.397853C0.292336 186.213 0.191139 186.171 0.116528 186.097C0.0419159 186.022 0 185.921 0 185.815C0 185.71 0.0419159 185.609 0.116528 185.534C0.191139 185.459 0.292336 185.418 0.397853 185.418H94.1071C94.1594 185.417 94.2112 185.428 94.2595 185.448C94.3079 185.467 94.3518 185.497 94.3887 185.534C94.4257 185.571 94.455 185.615 94.475 185.663C94.4949 185.711 94.5051 185.763 94.5049 185.815Z" fill="#CCCCCC"/>
<path d="M73.738 57.3629C74.0266 58.1699 73.9866 59.0581 73.6264 59.8358C73.2662 60.6135 72.6149 61.2185 71.8127 61.5204C71.6353 61.5867 71.4523 61.6371 71.2659 61.6711L69.4117 73.0247L65.062 69.0086L67.4897 58.8427C67.3998 57.9861 67.6507 57.1285 68.1881 56.4553C68.7255 55.7822 69.5062 55.3476 70.3615 55.2455C71.081 55.163 71.8072 55.3277 72.4208 55.7125C73.0344 56.0973 73.4989 56.6793 73.738 57.3629L73.738 57.3629Z" fill="#FFB6B6"/>
<path d="M41.6377 83.089C41.6377 83.089 45.0136 78.6286 57.2639 78.7507L64.2172 76.2244L65.8063 61.6576L71.3682 62.9819L70.5736 80.9917L58.6553 87.8778L43.0292 91.056L41.6377 83.089Z" fill="#3F3D56"/>
<path d="M39.8441 73.7966C43.8596 73.7966 47.1149 70.5414 47.1149 66.5258C47.1149 62.5102 43.8596 59.255 39.8441 59.255C35.8285 59.255 32.5732 62.5102 32.5732 66.5258C32.5732 70.5414 35.8285 73.7966 39.8441 73.7966Z" fill="#FFB6B6"/>
<path d="M27.5378 121.655C27.5249 121.655 27.5121 121.653 27.4996 121.65C27.3654 121.612 27.2594 121.583 27.7438 117.394L28.2667 114.083L27.7562 111.159L26.8977 110.301L28.2775 108.921L29.4355 105.632L27.4319 102.663L25.1332 90.5214C24.738 88.4263 25.0451 86.2594 26.0068 84.3566C26.9686 82.4538 28.5313 80.9215 30.4526 79.9972L33.1131 79.2199L34.0811 77.4446C34.3529 76.9461 34.7532 76.5294 35.2403 76.2377C35.7275 75.946 36.2838 75.7899 36.8516 75.7857L41.7236 75.7492C42.2152 75.7455 42.7009 75.8558 43.1427 76.0713C43.5845 76.2868 43.9704 76.6017 44.2702 76.9913L45.9699 79.2009L53.0184 81.5953L51.8497 106.777C52.0354 106.933 52.1868 107.125 52.2943 107.342C52.4018 107.559 52.4632 107.796 52.4745 108.037C52.4858 108.279 52.4467 108.521 52.3599 108.747C52.273 108.973 52.1402 109.178 51.9698 109.35C51.8965 109.424 51.8383 109.484 51.8024 109.524C51.6836 109.693 51.9065 110.953 52.1818 112.023L52.5349 113.662C52.4216 113.743 52.3263 113.846 52.2551 113.966C52.1838 114.086 52.1382 114.219 52.121 114.357C52.1038 114.495 52.1154 114.635 52.1551 114.769C52.1948 114.902 52.2618 115.026 52.3518 115.132L52.8019 115.664C52.8909 116.331 52.7119 117.006 52.304 117.541C51.8962 118.076 51.2928 118.427 50.6263 118.518C44.1846 119.394 27.5715 121.655 27.5378 121.655Z" fill="#3F3D56"/>
<path d="M37.984 73.4406C37.953 73.3722 37.922 73.3036 37.8911 73.2347C37.903 73.2351 37.9148 73.2368 37.9267 73.2371L37.984 73.4406Z" fill="#2F2E41"/>
<path d="M32.3708 59.5856C32.716 59.2599 33.1647 59.0659 33.6385 59.0375C34.1087 59.0527 34.5854 59.4773 34.488 59.9375C35.3516 58.4085 36.7262 57.2324 38.3705 56.6159C40.0148 55.9993 41.8237 55.9816 43.4797 56.5659C44.6483 56.9781 45.7942 57.8029 46.0627 59.0127C46.0888 59.3303 46.1835 59.6384 46.3403 59.9159C46.4761 60.0642 46.6524 60.1695 46.8474 60.2189C47.0424 60.2683 47.2475 60.2596 47.4376 60.1939L47.4492 60.1905C47.5142 60.1683 47.5845 60.1661 47.6508 60.1842C47.7171 60.2023 47.7765 60.24 47.8212 60.2922C47.8659 60.3444 47.8939 60.4089 47.9016 60.4772C47.9093 60.5455 47.8963 60.6146 47.8643 60.6754L47.5336 61.2921C47.9504 61.385 48.3835 61.3758 48.796 61.2652C48.8645 61.2473 48.9369 61.2509 49.0032 61.2757C49.0696 61.3005 49.1266 61.3453 49.1666 61.4038C49.2065 61.4623 49.2273 61.5317 49.2262 61.6025C49.2251 61.6734 49.2022 61.7421 49.1605 61.7994C48.611 62.5511 47.8936 63.1642 47.0654 63.5899C46.2373 64.0156 45.3212 64.2421 44.39 64.2514C43.069 64.2434 41.7343 63.7881 40.4486 64.0919C39.9512 64.2094 39.4864 64.4368 39.0884 64.7574C38.6903 65.0779 38.3691 65.4836 38.1483 65.9445C37.9274 66.4054 37.8126 66.9099 37.8122 67.421C37.8118 67.9321 37.9258 68.4368 38.1458 68.898C37.7509 68.466 36.9873 68.5683 36.5833 68.9919C36.3973 69.2186 36.2597 69.4812 36.1792 69.7632C36.0988 70.0453 36.077 70.3409 36.1154 70.6316C36.2232 71.5223 36.4876 72.3869 36.8965 73.1855C35.3343 73.1374 33.8244 72.611 32.5709 71.6774C31.3174 70.7439 30.3807 69.4481 29.8872 67.9651C29.3937 66.482 29.3672 64.8833 29.8113 63.3848C30.2555 61.8863 31.1489 60.5602 32.3708 59.5856L32.3708 59.5856Z" fill="#2F2E41"/>
<path d="M30.3706 132.083C29.6754 131.582 29.2051 130.827 29.0612 129.982C28.9172 129.137 29.111 128.27 29.6008 127.566C29.7095 127.411 29.8317 127.266 29.9659 127.132L25.0596 116.727L30.9193 117.571L34.6801 127.323C35.2396 127.978 35.5189 128.826 35.4576 129.686C35.3963 130.545 34.9993 131.345 34.3525 131.914C33.8064 132.39 33.1148 132.666 32.3912 132.696C31.6675 132.727 30.955 132.511 30.3706 132.083H30.3706Z" fill="#FFB6B6"/>
<path d="M28.8845 126.401L21.0772 108.855L20.999 94.9961L23.4601 87.5103C23.7939 86.4947 24.328 85.5563 25.0308 84.7506C25.7335 83.945 26.5906 83.2883 27.5514 82.8196C28.5122 82.3508 29.5573 82.0794 30.6248 82.0214C31.6923 81.9634 32.7606 82.12 33.7666 82.4819L33.8208 82.5015L33.8435 82.5544C33.9345 82.7667 35.9986 87.8724 29.876 98.3757L28.6438 105.563L32.9674 122.036L28.8845 126.401Z" fill="#3F3D56"/>
</g>
<defs>
<clipPath id="clip0_36_584">
<rect width="300" height="186.213" fill="white"/>
</clipPath>
</defs>
</svg>
