<svg width="150" height="130" viewBox="0 0 150 130" fill="none" xmlns="http://www.w3.org/2000/svg">
<g clip-path="url(#clip0_39_1239)">
<path d="M140.545 40.142C140.258 17.8942 128.908 0 114.947 0C106.558 0 99.1107 6.4624 94.4407 16.4483L99.9313 30.2248L92.3433 21.7334C90.4293 27.479 89.343 34.0387 89.343 41.0056C89.3275 46.2864 89.9778 51.5481 91.2785 56.6662L105.993 54.294L92.8244 61.6576C97.1146 73.4194 104.956 81.4525 113.994 81.9825L112.252 129.37L117.643 129.562L116.491 81.9349C129.361 80.7093 139.671 64.2598 140.497 43.6737L131.602 38.7003L140.545 40.142Z" fill="#F0F0F0"/>
<path d="M31.8057 68.6825H30.5264V78.2276H31.8057V68.6825Z" fill="#6C63FF"/>
<path d="M36.3981 72.9217L35.4611 73.7944L31.1671 69.1736L26.8716 73.7944L25.9346 72.9217L31.1671 67.2952L36.3981 72.9217Z" fill="#6C63FF"/>
<path d="M30.8111 83.0252C28.7868 83.0252 26.808 82.425 25.1249 81.3003C23.4417 80.1757 22.1299 78.5772 21.3553 76.7071C20.5806 74.8369 20.3779 72.779 20.7728 70.7936C21.1678 68.8082 22.1425 66.9845 23.5739 65.5532C25.0053 64.1218 26.829 63.147 28.8144 62.7521C30.7997 62.3572 32.8576 62.5599 34.7278 63.3345C36.598 64.1092 38.1965 65.421 39.3211 67.1041C40.4457 68.7872 41.046 70.7661 41.046 72.7903C41.0429 75.5039 39.9636 78.1054 38.0449 80.0241C36.1261 81.9429 33.5246 83.0222 30.8111 83.0252ZM30.8111 63.8348C29.0398 63.8348 27.3084 64.36 25.8356 65.3441C24.3629 66.3281 23.2151 67.7268 22.5372 69.3632C21.8594 70.9996 21.6821 72.8003 22.0276 74.5375C22.3732 76.2747 23.2261 77.8704 24.4786 79.1229C25.731 80.3753 27.3267 81.2282 29.0639 81.5738C30.8011 81.9193 32.6018 81.742 34.2382 81.0642C35.8746 80.3864 37.2733 79.2385 38.2573 77.7658C39.2414 76.293 39.7666 74.5616 39.7666 72.7903C39.7639 70.416 38.8196 68.1397 37.1406 66.4608C35.4617 64.7819 33.1854 63.8375 30.8111 63.8348Z" fill="#6C63FF"/>
<path d="M41.9368 49.2115H41.2314V54.4742H41.9368V49.2115Z" fill="#E4E4E4"/>
<path d="M44.4682 51.5488L43.9517 52.03L41.5841 49.4822L39.2159 52.03L38.6992 51.5488L41.5841 48.4465L44.4682 51.5488Z" fill="#E4E4E4"/>
<path d="M41.3881 57.1194C40.2721 57.1194 39.181 56.7884 38.253 56.1683C37.3251 55.5483 36.6018 54.667 36.1747 53.6358C35.7476 52.6047 35.6358 51.4701 35.8535 50.3754C36.0713 49.2808 36.6087 48.2753 37.3979 47.4861C38.1871 46.6969 39.1926 46.1595 40.2872 45.9417C41.3819 45.724 42.5165 45.8358 43.5476 46.2629C44.5788 46.69 45.4601 47.4133 46.0801 48.3412C46.7002 49.2692 47.0312 50.3603 47.0312 51.4763C47.0295 52.9724 46.4344 54.4068 45.3765 55.4647C44.3186 56.5226 42.8842 57.1177 41.3881 57.1194ZM41.3881 46.5387C40.4116 46.5387 39.4569 46.8283 38.6449 47.3709C37.833 47.9134 37.2001 48.6846 36.8264 49.5868C36.4526 50.489 36.3549 51.4818 36.5454 52.4396C36.7359 53.3974 37.2062 54.2772 37.8967 54.9678C38.5872 55.6583 39.467 56.1286 40.4249 56.3191C41.3827 56.5096 42.3755 56.4119 43.2777 56.0381C44.1799 55.6644 44.9511 55.0315 45.4936 54.2196C46.0362 53.4076 46.3258 52.4529 46.3258 51.4764C46.3243 50.1673 45.8036 48.9122 44.878 47.9865C43.9523 47.0609 42.6972 46.5402 41.3881 46.5387Z" fill="#E4E4E4"/>
<path d="M19.9925 36.1897H19.2871V41.4524H19.9925V36.1897Z" fill="#E4E4E4"/>
<path d="M22.525 38.5269L22.0084 39.0081L19.6407 36.4605L17.2725 39.0081L16.7559 38.5269L19.6407 35.4248L22.525 38.5269Z" fill="#E4E4E4"/>
<path d="M19.4448 44.0975C18.3287 44.0975 17.2377 43.7666 16.3097 43.1465C15.3817 42.5264 14.6584 41.6451 14.2313 40.614C13.8042 39.5829 13.6925 38.4482 13.9102 37.3536C14.1279 36.259 14.6654 35.2535 15.4546 34.4643C16.2438 33.6751 17.2492 33.1376 18.3439 32.9199C19.4385 32.7022 20.5731 32.8139 21.6043 33.241C22.6354 33.6681 23.5167 34.3914 24.1368 35.3194C24.7569 36.2474 25.0878 37.3384 25.0878 38.4545C25.0861 39.9506 24.491 41.3849 23.4331 42.4429C22.3752 43.5008 20.9409 44.0958 19.4448 44.0975ZM19.4448 33.5169C18.4682 33.5169 17.5136 33.8065 16.7016 34.349C15.8896 34.8916 15.2567 35.6627 14.883 36.565C14.5093 37.4672 14.4115 38.46 14.602 39.4178C14.7925 40.3756 15.2628 41.2554 15.9533 41.9459C16.6439 42.6365 17.5237 43.1067 18.4815 43.2973C19.4393 43.4878 20.4321 43.39 21.3343 43.0163C22.2366 42.6426 23.0077 42.0097 23.5503 41.1977C24.0928 40.3857 24.3824 39.4311 24.3824 38.4545C24.3809 37.1454 23.8603 35.8904 22.9346 34.9647C22.0089 34.039 20.7539 33.5183 19.4448 33.5169Z" fill="#E4E4E4"/>
<path d="M59.2505 100.905C59.093 100.743 58.9718 100.549 58.895 100.336C58.8182 100.123 58.7875 99.8965 58.8051 99.671C58.8227 99.4454 58.888 99.2263 58.9968 99.028C59.1056 98.8297 59.2554 98.6568 59.4362 98.5208C59.5132 98.4605 59.5949 98.4064 59.6805 98.359L58.3252 92.519L61.4774 93.6508L62.2811 99.0231C62.47 99.3591 62.5307 99.7523 62.4518 100.13C62.3728 100.507 62.1597 100.843 61.8519 101.075C61.4726 101.37 60.9983 101.516 60.5189 101.484C60.0395 101.453 59.5882 101.247 59.2505 100.905Z" fill="#FFB8B8"/>
<path d="M58.8921 96.3483L58.8752 96.2909C57.1712 90.5147 55.4097 84.5437 53.2592 78.0424L53.2451 77.9998L53.2926 77.9744C54.4912 77.3334 56.2928 77.3761 57.4832 78.0736C58.5845 78.719 59.1413 79.9673 58.8402 81.113L60.4087 88.6079C61.0464 91.0578 61.7063 93.5937 62.3371 96.0941L62.3549 96.165L62.2573 96.1707C61.1088 96.2376 59.9223 96.3068 58.9718 96.3451L58.8921 96.3483Z" fill="#CCCCCC"/>
<path d="M44.4111 127.436H42.1761L41.1123 119.535H44.4111V127.436Z" fill="#FFB8B8"/>
<path d="M44.9813 129.422H37.7744V129.338C37.7744 127.921 39.0328 126.767 40.5796 126.767H44.9813V129.422Z" fill="#2F2E41"/>
<path d="M65.4724 125.746L63.3427 126.368L59.7119 119.136L62.8549 118.218L65.4724 125.746Z" fill="#FFB8B8"/>
<path d="M59.8068 129.485L59.7792 129.405C59.3095 128.054 60.1265 126.606 61.6003 126.175L65.7942 124.95L66.6735 127.479L59.8068 129.485Z" fill="#2F2E41"/>
<path d="M54.1594 72.7491C56.6324 72.7491 58.6372 70.9118 58.6372 68.6454C58.6372 66.379 56.6324 64.5417 54.1594 64.5417C51.6864 64.5417 49.6816 66.379 49.6816 68.6454C49.6816 70.9118 51.6864 72.7491 54.1594 72.7491Z" fill="#FFB8B8"/>
<path d="M56.1698 67.8849C56.1952 66.2297 55.4394 64.5905 54.2707 63.7663C53.7058 63.3647 53.0273 63.1542 52.3342 63.1654C51.6411 63.1766 50.9698 63.409 50.4181 63.8287C49.2675 64.6905 48.5471 66.3536 48.6081 68.0074C51.1861 68.0141 53.7641 68.0208 56.1698 67.8849Z" fill="#2F2E41"/>
<path d="M45.6871 124.893L45.5975 124.885C43.653 124.71 41.6423 124.529 39.742 124.509L39.6387 124.507L39.6528 124.414C40.103 121.425 40.2939 118.319 40.4784 115.314C40.6607 112.347 40.8491 109.28 41.2881 106.366C41.4738 105.586 41.6547 104.815 41.8351 104.047C43.3274 97.6908 44.737 91.687 47.6466 85.7439L47.6741 85.6878L47.7407 85.6952C50.4707 85.9979 53.094 86.9107 55.1271 88.2654L55.1665 88.2916L55.1646 88.3362C55.1086 89.2508 55.102 90.1676 55.1449 91.0829C56.0597 92.2226 56.6723 93.5748 56.9257 95.0141C57.1792 96.4534 57.0654 97.9335 56.595 99.3172C57.3955 101.769 58.2232 104.304 59.0677 106.804C61.1184 111.957 63.2404 117.289 65.4157 122.694L65.4514 122.782L65.351 122.804C63.786 123.141 62.1715 123.488 60.5787 123.623L60.5186 123.628L60.49 123.579C56.4507 116.701 53.1456 109.418 50.629 101.849C50.0855 103.368 49.3025 104.739 48.5439 106.068C47.8214 107.27 47.1829 108.52 46.6329 109.81C46.2971 112.337 46.2081 115.074 46.122 117.721C46.0406 120.224 45.9638 122.588 45.697 124.811L45.6871 124.893Z" fill="#2F2E41"/>
<path d="M52.6308 63.8422C54.5717 63.459 56.7186 63.8236 58.2428 65.0237C59.7671 66.2239 60.5411 68.3 59.915 70.0806C59.2888 71.8612 57.1628 73.114 55.2405 72.6542C55.7912 71.232 55.1715 69.4858 53.8254 68.6665C52.2291 67.695 51.7896 65.3755 52.6308 63.8422Z" fill="#2F2E41"/>
<path d="M54.9875 88.4438L54.9165 88.4142C52.4405 87.379 50.0126 86.5846 47.7379 85.8598L47.6681 85.846L47.668 85.6607L47.7132 85.6751C47.7228 85.6558 47.7335 85.634 47.7443 85.6122C47.7753 85.5492 47.7965 85.5063 47.8145 85.4779L47.8141 85.4777C48.0037 85.1235 48.1545 84.7813 48.3002 84.4503C48.4507 84.1087 48.606 83.756 48.8066 83.3829C48.3267 82.9588 47.993 82.3941 47.853 81.7691C47.713 81.1442 47.7739 80.4911 48.027 79.9028C48.5295 78.8113 49.8108 77.9612 51.157 77.8201C51.6503 76.5756 52.7495 73.9606 52.7495 73.9606C52.7495 73.9606 55.0608 73.9024 55.9904 73.7943L56.006 73.7925L56.0214 73.7956C58.0506 74.2031 59.7448 75.9629 60.1412 78.0752C60.4758 79.8579 59.9677 81.8971 58.7105 83.8171C58.0615 84.761 57.3482 85.6592 56.5758 86.5052C56.0095 87.1541 55.4747 87.767 55.0305 88.3842L54.9875 88.4438Z" fill="#CCCCCC"/>
<path d="M59.4695 66.2741C58.1108 66.0882 57.044 64.8154 57.1985 63.5644C57.3529 62.3134 58.703 61.2912 60.0727 61.3882C61.4423 61.4852 62.605 62.6855 62.5478 63.9433C62.4906 65.2012 61.2042 66.5114 59.4695 66.2741Z" fill="#2F2E41"/>
<path d="M59.2566 65.4629C57.898 65.277 56.8312 64.0042 56.9857 62.7532C57.0913 61.8974 57.7567 61.1492 58.6049 60.7926C57.5092 61.0124 56.5662 61.8874 56.4387 62.9203C56.2843 64.1713 57.351 65.4441 58.7097 65.63C59.2144 65.703 59.7295 65.637 60.1995 65.439C59.8887 65.4987 59.5701 65.5068 59.2566 65.4629Z" fill="#2F2E41"/>
<path d="M32.9025 87.5139C33.1692 87.1161 33.5737 86.8312 34.0381 86.7141C34.5025 86.5971 34.9938 86.6562 35.4171 86.88C35.5038 86.9258 35.5867 86.9784 35.6651 87.0372L41.2217 83.9203L41.1075 87.0212L35.8483 89.5057C35.5513 89.785 35.1749 89.9651 34.7711 90.0211C34.3673 90.0772 33.956 90.0064 33.5942 89.8185C33.3888 89.7218 33.2061 89.583 33.0579 89.4111C32.9098 89.2391 32.7995 89.0379 32.7343 88.8205C32.669 88.6031 32.6503 88.3744 32.6793 88.1493C32.7082 87.9242 32.7843 87.7077 32.9025 87.5139Z" fill="#FFB8B8"/>
<path d="M37.4707 85.6864L37.5241 85.6526C42.8989 82.2557 48.455 78.7442 54.4271 74.7198L54.4663 74.6934L54.5082 74.726C55.567 75.5481 56.1233 77.1191 55.8024 78.3801C55.5054 79.5468 54.4065 80.4438 53.1275 80.5654L45.9394 84.4179C43.6314 85.7852 41.2423 87.2003 38.88 88.5785L38.8131 88.6176L38.7746 88.5351C38.3231 87.565 37.8566 86.5628 37.5006 85.7542L37.4707 85.6864Z" fill="#CCCCCC"/>
<path d="M149.806 129.748H0.193798C0.1424 129.748 0.0931064 129.728 0.0567621 129.691C0.0204178 129.655 0 129.606 0 129.554C0 129.503 0.0204178 129.454 0.0567621 129.417C0.0931064 129.381 0.1424 129.36 0.193798 129.36H149.806C149.858 129.36 149.907 129.381 149.943 129.417C149.98 129.454 150 129.503 150 129.554C150 129.606 149.98 129.655 149.943 129.691C149.907 129.728 149.858 129.748 149.806 129.748Z" fill="#CACACA"/>
</g>
<defs>
<clipPath id="clip0_39_1239">
<rect width="150" height="129.748" fill="white"/>
</clipPath>
</defs>
</svg>
