<svg width="40" height="40" viewBox="0 0 40 40" fill="none" xmlns="http://www.w3.org/2000/svg">
<path fill-rule="evenodd" clip-rule="evenodd" d="M3.3335 19.9999C3.3335 10.7952 10.7954 3.33325 20.0002 3.33325C29.2049 3.33325 36.6668 10.7952 36.6668 19.9999C36.6668 25.2782 34.2131 29.9835 30.3842 33.0372C29.6795 31.0209 28.4004 29.2472 26.6965 27.9397C24.7755 26.4656 22.4216 25.6666 20.0002 25.6666C17.5787 25.6666 15.2249 26.4656 13.3038 27.9397C11.5999 29.2471 10.3209 31.0209 9.61614 33.0372C5.78718 29.9835 3.3335 25.2782 3.3335 19.9999ZM25.479 29.5264C27.0239 30.7118 28.1419 32.3657 28.6666 34.239C26.1414 35.7792 23.1744 36.6666 20.0002 36.6666C16.8259 36.6666 13.8589 35.7792 11.3337 34.239C11.8585 32.3657 12.9765 30.7118 14.5213 29.5264C16.0931 28.3203 18.019 27.6666 20.0002 27.6666C21.9814 27.6666 23.9072 28.3203 25.479 29.5264ZM16.0002 14.9999C16.0002 12.7908 17.791 10.9999 20.0002 10.9999C22.2093 10.9999 24.0002 12.7908 24.0002 14.9999C24.0002 17.2091 22.2093 18.9999 20.0002 18.9999C17.791 18.9999 16.0002 17.2091 16.0002 14.9999ZM20.0002 8.99992C16.6865 8.99992 14.0002 11.6862 14.0002 14.9999C14.0002 18.3136 16.6865 20.9999 20.0002 20.9999C23.3139 20.9999 26.0002 18.3136 26.0002 14.9999C26.0002 11.6862 23.3139 8.99992 20.0002 8.99992Z" fill="#6C63FF"/>
<rect x="3.8335" y="3.83325" width="32.3333" height="32.3333" rx="16.1667" stroke="white"/>
</svg>
