<svg width="58" height="58" viewBox="0 0 58 58" fill="none" xmlns="http://www.w3.org/2000/svg">
<path d="M41.5278 5.88428L54.9998 19.3563L54.4718 19.8843H57.9998V5.88428H41.5278Z" fill="#5E3118"/>
<path d="M24.174 5.88428H7C3.134 5.88428 0 9.01828 0 12.8843C0 16.7503 3.134 19.8843 7 19.8843H11.23L10.702 19.3563L24.174 5.88428Z" fill="#5E3118"/>
<path d="M16.5428 8.36731C15.9018 8.41531 15.2448 8.44731 14.5818 8.47131C14.0298 8.49131 13.5988 8.95431 13.6188 9.50631C13.6388 10.0463 14.0818 10.4703 14.6168 10.4703C14.6298 10.4703 14.6408 10.4703 14.6538 10.4693C15.3418 10.4453 16.0248 10.4103 16.6908 10.3613C17.2418 10.3203 17.6548 9.84031 17.6138 9.29031C17.5728 8.74031 17.0948 8.32431 16.5428 8.36731Z" fill="#77442B"/>
<path d="M10.5882 8.56934C9.89217 8.58934 9.20917 8.61434 8.55417 8.65534C8.00217 8.68934 7.58317 9.16434 7.61717 9.71534C7.65017 10.2453 8.09017 10.6533 8.61417 10.6533C8.63517 10.6533 8.65617 10.6523 8.67717 10.6513C9.31117 10.6123 9.97017 10.5873 10.6432 10.5693C11.1952 10.5533 11.6302 10.0943 11.6162 9.54234C11.6022 8.99034 11.1242 8.59534 10.5882 8.56934Z" fill="#77442B"/>
<path d="M4.35905 9.31934C3.45205 9.61634 2.75705 10.0133 2.23905 10.5323C1.84805 10.9233 1.84805 11.5553 2.23905 11.9463C2.43405 12.1413 2.69005 12.2393 2.94605 12.2393C3.20205 12.2393 3.45805 12.1413 3.65305 11.9463C3.94105 11.6593 4.38705 11.4143 4.98205 11.2193C5.50605 11.0473 5.79305 10.4833 5.62105 9.95734C5.45005 9.43434 4.88905 9.14634 4.35905 9.31934Z" fill="#77442B"/>
<path d="M50 8.88428H48C47.447 8.88428 47 9.33128 47 9.88428C47 10.4373 47.447 10.8843 48 10.8843H50C50.553 10.8843 51 10.4373 51 9.88428C51 9.33128 50.553 8.88428 50 8.88428Z" fill="#77442B"/>
<path d="M56 8.88428H54C53.447 8.88428 53 9.33128 53 9.88428C53 10.4373 53.447 10.8843 54 10.8843H56C56.553 10.8843 57 10.4373 57 9.88428C57 9.33128 56.553 8.88428 56 8.88428Z" fill="#77442B"/>
<path d="M55.5561 19.8842L35.8001 0.156223C35.7461 0.102223 35.6581 0.102223 35.6041 0.156223L15.8491 19.8842H55.5561Z" fill="#EAEAD6"/>
<path d="M15.876 19.8842L32.851 2.90922L30.098 0.156223C30.044 0.102223 29.956 0.102223 29.902 0.156223L10.147 19.8842H15.876Z" fill="#BFBDA3"/>
<path d="M47.331 20.509L47.64 20.2L35.759 8.33504C35.727 8.30304 35.676 8.30304 35.644 8.33504L23.769 20.2L24.078 20.509H47.331Z" fill="#6D8C60"/>
<path d="M0 12.8843V51.7323C0 55.1303 2.754 57.8843 6.152 57.8843H58V19.8843H7C3.134 19.8843 0 16.7503 0 12.8843Z" fill="#77442B"/>
<path d="M51.9998 24.8841H49.9998C49.4468 24.8841 48.9998 24.4371 48.9998 23.8841C48.9998 23.3311 49.4468 22.8841 49.9998 22.8841H51.9998C52.5528 22.8841 52.9998 23.3311 52.9998 23.8841C52.9998 24.4371 52.5528 24.8841 51.9998 24.8841ZM45.9998 24.8841H43.9998C43.4468 24.8841 42.9998 24.4371 42.9998 23.8841C42.9998 23.3311 43.4468 22.8841 43.9998 22.8841H45.9998C46.5528 22.8841 46.9998 23.3311 46.9998 23.8841C46.9998 24.4371 46.5528 24.8841 45.9998 24.8841ZM39.9998 24.8841H37.9998C37.4468 24.8841 36.9998 24.4371 36.9998 23.8841C36.9998 23.3311 37.4468 22.8841 37.9998 22.8841H39.9998C40.5528 22.8841 40.9998 23.3311 40.9998 23.8841C40.9998 24.4371 40.5528 24.8841 39.9998 24.8841ZM33.9998 24.8841H31.9998C31.4468 24.8841 30.9998 24.4371 30.9998 23.8841C30.9998 23.3311 31.4468 22.8841 31.9998 22.8841H33.9998C34.5528 22.8841 34.9998 23.3311 34.9998 23.8841C34.9998 24.4371 34.5528 24.8841 33.9998 24.8841ZM27.9998 24.8841H25.9998C25.4468 24.8841 24.9998 24.4371 24.9998 23.8841C24.9998 23.3311 25.4468 22.8841 25.9998 22.8841H27.9998C28.5528 22.8841 28.9998 23.3311 28.9998 23.8841C28.9998 24.4371 28.5528 24.8841 27.9998 24.8841ZM21.9998 24.8841H19.9998C19.4468 24.8841 18.9998 24.4371 18.9998 23.8841C18.9998 23.3311 19.4468 22.8841 19.9998 22.8841H21.9998C22.5528 22.8841 22.9998 23.3311 22.9998 23.8841C22.9998 24.4371 22.5528 24.8841 21.9998 24.8841ZM15.9998 24.8841H13.9998C13.4468 24.8841 12.9998 24.4371 12.9998 23.8841C12.9998 23.3311 13.4468 22.8841 13.9998 22.8841H15.9998C16.5528 22.8841 16.9998 23.3311 16.9998 23.8841C16.9998 24.4371 16.5528 24.8841 15.9998 24.8841ZM9.99981 24.8841H7.99981C7.44681 24.8841 6.99981 24.4371 6.99981 23.8841C6.99981 23.3311 7.44681 22.8841 7.99981 22.8841H9.99981C10.5528 22.8841 10.9998 23.3311 10.9998 23.8841C10.9998 24.4371 10.5528 24.8841 9.99981 24.8841ZM4.09081 24.2541C3.95181 24.2541 3.81081 24.2251 3.67581 24.1631C2.98281 23.8461 2.33881 23.4321 1.76181 22.9321C1.34481 22.5691 1.29981 21.9371 1.66081 21.5201C2.02381 21.1031 2.65481 21.0581 3.07181 21.4191C3.50481 21.7951 3.98781 22.1061 4.50781 22.3441C5.00981 22.5731 5.23081 23.1671 5.00081 23.6691C4.83281 24.0371 4.47081 24.2541 4.09081 24.2541Z" fill="#91553D"/>
<path d="M51.9998 54.8841H49.9998C49.4468 54.8841 48.9998 54.4371 48.9998 53.8841C48.9998 53.3311 49.4468 52.8841 49.9998 52.8841H51.9998C52.5528 52.8841 52.9998 53.3311 52.9998 53.8841C52.9998 54.4371 52.5528 54.8841 51.9998 54.8841ZM45.9998 54.8841H43.9998C43.4468 54.8841 42.9998 54.4371 42.9998 53.8841C42.9998 53.3311 43.4468 52.8841 43.9998 52.8841H45.9998C46.5528 52.8841 46.9998 53.3311 46.9998 53.8841C46.9998 54.4371 46.5528 54.8841 45.9998 54.8841ZM39.9998 54.8841H37.9998C37.4468 54.8841 36.9998 54.4371 36.9998 53.8841C36.9998 53.3311 37.4468 52.8841 37.9998 52.8841H39.9998C40.5528 52.8841 40.9998 53.3311 40.9998 53.8841C40.9998 54.4371 40.5528 54.8841 39.9998 54.8841ZM33.9998 54.8841H31.9998C31.4468 54.8841 30.9998 54.4371 30.9998 53.8841C30.9998 53.3311 31.4468 52.8841 31.9998 52.8841H33.9998C34.5528 52.8841 34.9998 53.3311 34.9998 53.8841C34.9998 54.4371 34.5528 54.8841 33.9998 54.8841ZM27.9998 54.8841H25.9998C25.4468 54.8841 24.9998 54.4371 24.9998 53.8841C24.9998 53.3311 25.4468 52.8841 25.9998 52.8841H27.9998C28.5528 52.8841 28.9998 53.3311 28.9998 53.8841C28.9998 54.4371 28.5528 54.8841 27.9998 54.8841ZM21.9998 54.8841H19.9998C19.4468 54.8841 18.9998 54.4371 18.9998 53.8841C18.9998 53.3311 19.4468 52.8841 19.9998 52.8841H21.9998C22.5528 52.8841 22.9998 53.3311 22.9998 53.8841C22.9998 54.4371 22.5528 54.8841 21.9998 54.8841ZM15.9998 54.8841H13.9998C13.4468 54.8841 12.9998 54.4371 12.9998 53.8841C12.9998 53.3311 13.4468 52.8841 13.9998 52.8841H15.9998C16.5528 52.8841 16.9998 53.3311 16.9998 53.8841C16.9998 54.4371 16.5528 54.8841 15.9998 54.8841ZM9.99981 54.8841H7.99981C7.44681 54.8841 6.99981 54.4371 6.99981 53.8841C6.99981 53.3311 7.44681 52.8841 7.99981 52.8841H9.99981C10.5528 52.8841 10.9998 53.3311 10.9998 53.8841C10.9998 54.4371 10.5528 54.8841 9.99981 54.8841ZM4.09081 54.2541C3.95181 54.2541 3.81081 54.2251 3.67581 54.1631C2.98281 53.8461 2.33881 53.4321 1.76181 52.9321C1.34481 52.5691 1.29981 51.9371 1.66081 51.5201C2.02381 51.1031 2.65481 51.0581 3.07181 51.4191C3.50481 51.7951 3.98781 52.1061 4.50781 52.3441C5.00981 52.5731 5.23081 53.1671 5.00081 53.6691C4.83281 54.0371 4.47081 54.2541 4.09081 54.2541Z" fill="#91553D"/>
<path d="M58 45.0513H46C42.686 45.0513 40 42.3653 40 39.0513C40 35.7373 42.686 33.0513 46 33.0513H58V45.0513Z" fill="#6D3D25"/>
<path d="M58 43.8843H46C42.686 43.8843 40 41.1983 40 37.8843C40 34.5703 42.686 31.8843 46 31.8843H58V43.8843Z" fill="#5E3118"/>
<path d="M47 40.8843C48.6569 40.8843 50 39.5411 50 37.8843C50 36.2274 48.6569 34.8843 47 34.8843C45.3431 34.8843 44 36.2274 44 37.8843C44 39.5411 45.3431 40.8843 47 40.8843Z" fill="#E4C05C"/>
</svg>
