<svg width="40" height="40" viewBox="0 0 40 40" fill="none" xmlns="http://www.w3.org/2000/svg">
<path d="M23.75 6.66667H16.25C10.9467 6.66667 8.29505 6.66667 6.64752 8.34034C5 10.014 5 12.7078 5 18.0952V21.9048C5 27.2922 5 29.986 6.64752 31.6597C8.29505 33.3333 10.9467 33.3333 16.25 33.3333H23.75C29.0533 33.3333 31.705 33.3333 33.3525 31.6597C35 29.986 35 27.2922 35 21.9048V18.0952C35 12.7078 35 10.014 33.3525 8.34034C31.705 6.66667 29.0533 6.66667 23.75 6.66667Z" stroke="#6C63FF"/>
<path d="M11.6667 13.3333H16.6667" stroke="#6C63FF" stroke-linecap="round"/>
<path d="M25 24.6667V22C25 21.0572 25 20.5858 25.2929 20.2929C25.5858 20 26.0572 20 27 20H33C33.9428 20 34.4142 20 34.7071 20.2929C35 20.5858 35 21.0572 35 22V24.6667C35 25.6095 35 26.0809 34.7071 26.3738C34.4142 26.6667 33.9428 26.6667 33 26.6667H27C26.0572 26.6667 25.5858 26.6667 25.2929 26.3738C25 26.0809 25 25.6095 25 24.6667Z" stroke="#6C63FF"/>
</svg>
